<svg width="27" height="28" viewBox="0 0 27 28" fill="none" xmlns="http://www.w3.org/2000/svg">
<path d="M2.31346 6.6875H4.61202M4.61202 6.6875C5.22164 6.6875 5.80629 6.98711 6.23735 7.52041C6.66841 8.05372 6.91058 8.77704 6.91058 9.53125C6.91058 10.2855 6.66841 11.0088 6.23735 11.5421C5.80629 12.0754 5.22164 12.375 4.61202 12.375H1M4.61202 6.6875C5.22164 6.6875 5.80629 6.38789 6.23735 5.85458C6.66841 5.32128 6.91058 4.59796 6.91058 3.84375C6.91058 3.08954 6.66841 2.36622 6.23735 1.83292C5.80629 1.29961 5.22164 1 4.61202 1H1M15.4481 1H14.1346C13.0896 1 12.0873 1.51361 11.3484 2.42785C10.6094 3.34209 10.1942 4.58207 10.1942 5.875V9.125M10.1942 9.125C10.1942 9.98695 10.471 10.8136 10.9637 11.4231C11.4563 12.0326 12.1245 12.375 12.8212 12.375H13.4779C14.1746 12.375 14.8428 12.0326 15.3354 11.4231C15.8281 10.8136 16.1048 9.98695 16.1048 9.125V8.3125C16.1048 7.45055 15.8281 6.6239 15.3354 6.0144C14.8428 5.40491 12.2044 5.875 11.5077 5.875M10.1942 9.125V8.3125C10.1942 7.45055 10.471 6.6239 10.9637 6.0144M24.6423 17.25C24.6423 22.6352 19.3491 27 12.8212 27C6.29326 27 1 22.6352 1 17.25H24.6423ZM19.3885 6.6875V4.25C19.3885 3.38805 19.6652 2.5614 20.1579 1.9519C20.6505 1.34241 21.3187 1 22.0154 1H22.6721C23.3688 1 24.037 1.34241 24.5297 1.9519C25.0223 2.5614 25.2991 3.38805 25.2991 4.25V9.125C25.2991 9.98695 25.0223 10.8136 24.5297 11.4231C24.037 12.0326 23.3688 12.375 22.6721 12.375H22.0154C21.3187 12.375 20.6505 12.0326 20.1579 11.4231C19.6652 10.8136 19.3885 9.98695 19.3885 9.125V6.6875Z" stroke="black" stroke-width="2" stroke-linecap="round" stroke-linejoin="round"/>
</svg>
