<svg width="28" height="28" viewBox="0 0 28 28" fill="none" xmlns="http://www.w3.org/2000/svg">
<path d="M1.50971 18.4049L0.536138 18.6333L1.50971 18.4049ZM1.50971 9.59507L0.536138 9.3667L1.50971 9.59507ZM26.4903 9.59507L25.5167 9.82344L26.4903 9.59507ZM26.4903 18.4049L25.5167 18.1766L26.4903 18.4049ZM18.4049 26.4903L18.1766 25.5167L18.4049 26.4903ZM9.59507 26.4903L9.82344 25.5167L9.59507 26.4903ZM9.59507 1.50971L9.82344 2.48329L9.59507 1.50971ZM18.4049 1.50971L18.1766 2.48328L18.4049 1.50971ZM11.9141 14.8707L12.8651 15.1798C13.0034 14.7542 12.8421 14.2884 12.47 14.0395L11.9141 14.8707ZM10.8828 18.0434L9.93181 17.7342L10.8828 18.0434ZM16.0859 14.8707L15.53 14.0395C15.1579 14.2884 14.9966 14.7542 15.1349 15.1798L16.0859 14.8707ZM17.1172 18.0434L16.1661 18.3525L17.1172 18.0434ZM2.48329 18.1766C1.8389 15.4295 1.8389 12.5705 2.48329 9.82344L0.536138 9.3667C-0.178712 12.4142 -0.178713 15.5858 0.536138 18.6333L2.48329 18.1766ZM25.5167 9.82344C26.1611 12.5705 26.1611 15.4295 25.5167 18.1766L27.4639 18.6333C28.1787 15.5858 28.1787 12.4142 27.4639 9.3667L25.5167 9.82344ZM18.1766 25.5167C15.4295 26.1611 12.5705 26.1611 9.82344 25.5167L9.3667 27.4639C12.4142 28.1787 15.5858 28.1787 18.6333 27.4639L18.1766 25.5167ZM9.82344 2.48329C12.5705 1.83891 15.4295 1.8389 18.1766 2.48328L18.6333 0.536136C15.5858 -0.178712 12.4142 -0.178712 9.3667 0.536136L9.82344 2.48329ZM9.82344 25.5167C6.18137 24.6624 3.3376 21.8186 2.48329 18.1766L0.536138 18.6333C1.56392 23.0149 4.98511 26.4361 9.3667 27.4639L9.82344 25.5167ZM18.6333 27.4639C23.0149 26.4361 26.4361 23.0149 27.4639 18.6333L25.5167 18.1766C24.6624 21.8186 21.8186 24.6624 18.1766 25.5167L18.6333 27.4639ZM18.1766 2.48328C21.8186 3.3376 24.6624 6.18137 25.5167 9.82344L27.4639 9.3667C26.4361 4.98511 23.0149 1.56392 18.6333 0.536136L18.1766 2.48328ZM9.3667 0.536136C4.98511 1.56392 1.56392 4.9851 0.536138 9.3667L2.48329 9.82344C3.3376 6.18136 6.18136 3.3376 9.82344 2.48329L9.3667 0.536136ZM11.2435 11.7461C11.2435 10.2237 12.4776 8.98954 14 8.98954V6.98954C11.373 6.98954 9.24346 9.11911 9.24346 11.7461H11.2435ZM14 8.98954C15.5224 8.98954 16.7565 10.2237 16.7565 11.7461H18.7565C18.7565 9.11911 16.627 6.98954 14 6.98954V8.98954ZM12.47 14.0395C11.7284 13.5434 11.2435 12.7012 11.2435 11.7461H9.24346C9.24346 13.3967 10.0851 14.8504 11.3581 15.7019L12.47 14.0395ZM10.963 14.5616L9.93181 17.7342L11.8339 18.3525L12.8651 15.1798L10.963 14.5616ZM12.3119 21.0105H15.6881V19.0105H12.3119V21.0105ZM16.7565 11.7461C16.7565 12.7012 16.2716 13.5434 15.53 14.0395L16.6419 15.7019C17.9149 14.8504 18.7565 13.3967 18.7565 11.7461H16.7565ZM18.0682 17.7342L17.037 14.5616L15.1349 15.1798L16.1661 18.3525L18.0682 17.7342ZM15.6881 21.0105C17.3884 21.0105 18.5938 19.3513 18.0682 17.7342L16.1661 18.3525C16.2717 18.6772 16.0296 19.0105 15.6881 19.0105V21.0105ZM9.93181 17.7342C9.40622 19.3513 10.6116 21.0105 12.3119 21.0105V19.0105C11.9704 19.0105 11.7283 18.6772 11.8339 18.3525L9.93181 17.7342Z" fill="#12BD80"/>
</svg>
