<svg width="27" height="28" viewBox="0 0 27 28" fill="none" xmlns="http://www.w3.org/2000/svg">
<path d="M1 21.2523L1 15.5045L1.02961 14.9792C1.4107 8.22009 5.46127 2.60617 10.9212 1.26997C12.392 0.91001 13.9071 0.91001 15.3779 1.26997C20.8378 2.60617 24.8884 8.22009 25.2695 14.9792L25.2991 15.5045V21.2523M17.5107 22.3795C17.3051 21.0926 17.3051 19.7697 17.5107 18.4829C17.8412 16.4146 19.1005 14.7486 20.767 14.1747L21.1205 14.053C21.488 13.9265 21.868 13.8623 22.2499 13.8623C23.9339 13.8623 25.2991 15.523 25.299 17.5716V23.2907C25.2991 25.3393 23.9339 27 22.2499 27C21.868 27 21.488 26.9358 21.1205 26.8093L20.767 26.6876C19.1005 26.1137 17.8412 24.4478 17.5107 22.3795ZM8.78835 22.3795C8.99398 21.0926 8.99398 19.7697 8.78835 18.4829C8.45784 16.4146 7.19859 14.7486 5.53202 14.1747L5.17852 14.053C4.81108 13.9265 4.43103 13.8623 4.04915 13.8623C2.36515 13.8623 0.999998 15.523 1.00001 17.5716L1.00001 23.2907C0.999997 25.3393 2.36515 27 4.04915 27C4.43103 27 4.81108 26.9358 5.17852 26.8093L5.53202 26.6876C7.19859 26.1137 8.45784 24.4478 8.78835 22.3795Z" stroke="black" stroke-width="2"/>
</svg>
