<svg width="27" height="27" viewBox="0 0 27 27" fill="none" xmlns="http://www.w3.org/2000/svg">
<path d="M12.3644 1.26858L12.109 0.301756L12.3644 1.26858ZM15.3778 1.26858L15.1223 2.23541L15.1223 2.23541L15.3778 1.26858ZM2.38243 18.9437L3.34404 18.6693L2.38243 18.9437ZM2.37773 11.6544L3.33934 11.9288H3.33934L2.37773 11.6544ZM25.3645 11.6544L26.3261 11.38L26.3261 11.38L25.3645 11.6544ZM25.3598 18.9437L26.3214 19.2181L25.3598 18.9437ZM19.195 24.5646L19.0056 23.5827L19.195 24.5646ZM8.54724 24.5646L8.73656 23.5827L8.54724 24.5646ZM9.56839 5.82021L9.75771 6.80213H9.75771L9.56839 5.82021ZM18.1738 5.82021L18.3631 4.83829L18.1738 5.82021ZM19.6052 6.0962L19.4159 7.07811L19.6052 6.0962ZM25.2405 11.2199L24.2789 11.4944V11.4944L25.2405 11.2199ZM8.13697 6.0962L7.94765 5.11428L8.13697 6.0962ZM2.50172 11.2199L1.54011 10.9455L1.54011 10.9455L2.50172 11.2199ZM12.6199 2.23541C13.4395 2.01886 14.3027 2.01886 15.1223 2.23541L15.6332 0.301756C14.4787 -0.00325453 13.2635 -0.00325465 12.109 0.301756L12.6199 2.23541ZM20.4405 6.49054C20.4405 3.58136 18.4603 1.04868 15.6332 0.301756L15.1223 2.23541C17.0879 2.7547 18.4405 4.50574 18.4405 6.49054H20.4405ZM9.30172 6.49053C9.30172 4.50574 10.6543 2.7547 12.6199 2.23541L12.109 0.301756C9.28187 1.04868 7.30172 3.58136 7.30172 6.49053L9.30172 6.49053ZM8.3263 7.07811L9.75771 6.80213L9.37907 4.8383L7.94765 5.11428L8.3263 7.07811ZM17.9845 6.80212L19.4159 7.07811L19.7945 5.11428L18.3631 4.83829L17.9845 6.80212ZM24.2789 11.4944L24.4029 11.9288L26.3261 11.38L26.2021 10.9455L24.2789 11.4944ZM3.33934 11.9288L3.46333 11.4943L1.54011 10.9455L1.41612 11.38L3.33934 11.9288ZM3.34404 18.6693C2.71622 16.4693 2.71225 14.1263 3.33934 11.9288L1.41612 11.38C0.685933 13.9387 0.691357 16.662 1.42081 19.2181L3.34404 18.6693ZM24.4029 11.9288C25.0299 14.1263 25.026 16.4693 24.3982 18.6693L26.3214 19.2181C27.0508 16.662 27.0563 13.9387 26.3261 11.38L24.4029 11.9288ZM19.0056 23.5827C15.6147 24.2364 12.1275 24.2364 8.73656 23.5827L8.35791 25.5465C11.9989 26.2485 15.7432 26.2485 19.3843 25.5465L19.0056 23.5827ZM9.75771 6.80213C12.4742 6.27836 15.268 6.27836 17.9845 6.80212L18.3631 4.83829C15.3965 4.2663 12.3457 4.2663 9.37907 4.8383L9.75771 6.80213ZM8.73656 23.5827C6.14433 23.0828 4.05695 21.1675 3.34404 18.6693L1.42081 19.2181C2.34216 22.4467 5.03064 24.905 8.35791 25.5465L8.73656 23.5827ZM19.3843 25.5465C22.7116 24.905 25.4 22.4467 26.3214 19.2181L24.3982 18.6693C23.6852 21.1675 21.5979 23.0828 19.0056 23.5827L19.3843 25.5465ZM19.4159 7.07811C21.7596 7.53 23.6363 9.24257 24.2789 11.4944L26.2021 10.9455C25.3493 7.95734 22.8671 5.70671 19.7945 5.11428L19.4159 7.07811ZM7.94765 5.11428C4.87506 5.70671 2.39285 7.95734 1.54011 10.9455L3.46333 11.4943C4.10593 9.24256 5.98258 7.53 8.3263 7.07811L7.94765 5.11428ZM2.38542 12.7953C9.79095 15.5345 17.9512 15.5345 25.3568 12.7953L24.6629 10.9195C17.7051 13.4931 10.037 13.4931 3.07926 10.9195L2.38542 12.7953Z" fill="#12BD80"/>
</svg>
