<svg width="27" height="27" viewBox="0 0 27 27" fill="none" xmlns="http://www.w3.org/2000/svg">
<path d="M19.1348 5.08244H23.3848C23.7605 5.08244 24.1208 5.23608 24.3865 5.50957C24.6522 5.78306 24.8014 6.154 24.8014 6.54077V22.5824C24.8014 23.356 24.5029 24.0978 23.9716 24.6448C23.4402 25.1918 22.7195 25.4991 21.9681 25.4991C21.2167 25.4991 20.496 25.1918 19.9646 24.6448C19.4333 24.0978 19.1348 23.356 19.1348 22.5824V3.6241C19.1348 3.23733 18.9855 2.8664 18.7198 2.59291C18.4542 2.31942 18.0938 2.16577 17.7181 2.16577H3.55143C3.17571 2.16577 2.81537 2.31942 2.5497 2.59291C2.28402 2.8664 2.13477 3.23733 2.13477 3.6241V21.1241C2.13477 22.2844 2.58253 23.3972 3.37956 24.2177C4.17659 25.0382 5.2576 25.4991 6.38477 25.4991H21.9681" stroke="black" stroke-width="3" stroke-linecap="round" stroke-linejoin="round"/>
<path d="M7.80078 7.99902H13.4674" stroke="black" stroke-width="3" stroke-linecap="round" stroke-linejoin="round"/>
<path d="M7.80078 13.8325H13.4674" stroke="black" stroke-width="3" stroke-linecap="round" stroke-linejoin="round"/>
<path d="M7.80078 19.6658H13.4674" stroke="black" stroke-width="3" stroke-linecap="round" stroke-linejoin="round"/>
</svg>
