<svg width="26" height="26" viewBox="0 0 26 26" fill="none" xmlns="http://www.w3.org/2000/svg">
<mask id="mask0_777_423" style="mask-type:alpha" maskUnits="userSpaceOnUse" x="0" y="16" width="20" height="10">
<path fill-rule="evenodd" clip-rule="evenodd" d="M0 16.3135H19.7597V25.9999H0V16.3135Z" fill="white"/>
</mask>
<g mask="url(#mask0_777_423)">
<path fill-rule="evenodd" clip-rule="evenodd" d="M9.8791 18.3606C6.2626 18.3606 1.95117 18.8477 1.95117 21.1739C1.95117 23.0185 4.61897 23.9545 9.8791 23.9545C15.1392 23.9545 17.807 23.009 17.807 21.1466C17.807 19.2979 15.1392 18.3606 9.8791 18.3606ZM9.87997 26.0004C7.17834 26.0004 0 26.0004 0 21.1733C0 16.3135 7.43601 16.3135 9.87997 16.3135C14.1211 16.3135 19.7599 16.8142 19.7599 21.146C19.7599 26.0004 12.3239 26.0004 9.87997 26.0004Z" fill="#12BD80"/>
</g>
<path fill-rule="evenodd" clip-rule="evenodd" d="M9.87825 2.04606C7.26901 2.04606 5.14648 4.27133 5.14648 7.0055C5.14648 9.73967 7.26901 11.9649 9.87825 11.9649H9.91859C11.1731 11.9595 12.3548 11.4424 13.241 10.5051C14.1285 9.57049 14.6139 8.32756 14.6087 7.00959C14.6087 4.27133 12.4862 2.04606 9.87825 2.04606ZM9.87913 14.0119C6.19366 14.0119 3.19531 10.8685 3.19531 7.00597C3.19531 3.14348 6.19366 0 9.87913 0C13.5633 0 16.5616 3.14348 16.5616 7.00597C16.5695 8.86695 15.881 10.6242 14.6265 11.9477C13.3746 13.2725 11.7023 14.0051 9.92338 14.0119H9.87913Z" fill="#12BD80"/>
<path fill-rule="evenodd" clip-rule="evenodd" d="M18.8462 12.459C18.3672 12.459 17.9495 12.0893 17.8805 11.5776C17.8064 11.0182 18.1772 10.4998 18.7108 10.422C20.3349 10.1833 21.5608 8.70566 21.5634 6.98384C21.5634 5.27294 20.3948 3.82945 18.7876 3.55385C18.2553 3.46107 17.8949 2.93579 17.982 2.37777C18.0692 1.81975 18.5729 1.44455 19.1025 1.53324C21.6597 1.97256 23.5155 4.26604 23.5155 6.98521C23.5102 9.72074 21.5621 12.0702 18.9828 12.4495C18.9372 12.4563 18.8917 12.459 18.8462 12.459Z" fill="#12BD80"/>
<mask id="mask1_777_423" style="mask-type:alpha" maskUnits="userSpaceOnUse" x="20" y="15" width="7" height="8">
<path fill-rule="evenodd" clip-rule="evenodd" d="M20.6211 15.667H26.0006V22.4581H20.6211V15.667Z" fill="white"/>
</mask>
<g mask="url(#mask1_777_423)">
<path fill-rule="evenodd" clip-rule="evenodd" d="M23.2892 22.4581C22.8949 22.4581 22.524 22.2057 22.377 21.7978C22.1857 21.2698 22.4395 20.6776 22.9431 20.4784C24.0492 20.0391 24.0492 19.5029 24.0492 19.2737C24.0492 18.5001 23.176 17.9707 21.4543 17.702C20.9208 17.6174 20.5525 17.0962 20.6319 16.5382C20.7125 15.9788 21.2188 15.6036 21.7419 15.6759C25.2634 16.2285 26.0013 17.938 26.0013 19.2737C26.0013 20.2683 25.5914 21.6149 23.6354 22.3913C23.5222 22.4363 23.4051 22.4581 23.2892 22.4581Z" fill="#12BD80"/>
</g>
</svg>
