<svg width="25" height="25" viewBox="0 0 25 25" fill="none" xmlns="http://www.w3.org/2000/svg">
<path d="M15.7267 8.93964C16.8859 8.93964 17.8267 9.92995 17.8267 11.1502V15.2554H17.8219V15.5712C17.8219 15.8225 17.7271 16.0634 17.5583 16.2411C17.3895 16.4188 17.1606 16.5186 16.9219 16.5186C16.6832 16.5186 16.4543 16.4188 16.2855 16.2411C16.1167 16.0634 16.0219 15.8225 16.0219 15.5712V12.7291H16.0267V11.1502C16.0267 11.0664 15.9951 10.9861 15.9388 10.9269C15.8825 10.8676 15.8062 10.8344 15.7267 10.8344H9.12428C9.04471 10.8344 8.9684 10.8676 8.91214 10.9269C8.85588 10.9861 8.82428 11.0664 8.82428 11.1502V15.2554H8.82188V15.5712C8.82188 15.8225 8.72705 16.0634 8.55827 16.2411C8.38949 16.4188 8.16057 16.5186 7.92188 16.5186C7.68318 16.5186 7.45426 16.4188 7.28548 16.2411C7.1167 16.0634 7.02188 15.8225 7.02188 15.5712V12.7291H7.02428V11.1502C7.02428 9.92995 7.96388 8.93964 9.12428 8.93964H15.7267ZM22.6219 11.1502V15.5712C22.6219 15.8225 22.7167 16.0634 22.8855 16.2411C23.0543 16.4188 23.2832 16.5186 23.5219 16.5186C23.7606 16.5186 23.9895 16.4188 24.1583 16.2411C24.3271 16.0634 24.4219 15.8225 24.4219 15.5712V11.1502C24.4219 10.5639 24.2006 10.0016 23.8068 9.58709C23.413 9.17253 22.8788 8.93964 22.3219 8.93964H18.2719C18.6835 9.46385 18.9523 10.1169 19.0135 10.8344H22.3219C22.4014 10.8344 22.4777 10.8676 22.534 10.9269C22.5903 10.9861 22.6219 11.0664 22.6219 11.1502ZM0.421875 15.5712C0.421875 15.8225 0.516696 16.0634 0.685479 16.2411C0.854262 16.4188 1.08318 16.5186 1.32188 16.5186C1.56057 16.5186 1.78949 16.4188 1.95827 16.2411C2.12705 16.0634 2.22188 15.8225 2.22188 15.5712V11.1502C2.22188 11.0664 2.25348 10.9861 2.30974 10.9269C2.366 10.8676 2.44231 10.8344 2.52188 10.8344H5.83748C5.89716 10.1384 6.15571 9.47786 6.57908 8.93964H2.52188C1.96492 8.93964 1.43078 9.17253 1.03695 9.58709C0.643124 10.0016 0.421875 10.5639 0.421875 11.1502V15.5712ZM12.4219 0.0975342C13.3767 0.0975342 14.2923 0.496781 14.9675 1.20745C15.6426 1.91811 16.0219 2.88198 16.0219 3.88701C16.0219 4.89204 15.6426 5.85591 14.9675 6.56657C14.2923 7.27723 13.3767 7.67648 12.4219 7.67648C11.4671 7.67648 10.5514 7.27723 9.87629 6.56657C9.20116 5.85591 8.82188 4.89204 8.82188 3.88701C8.82188 2.88198 9.20116 1.91811 9.87629 1.20745C10.5514 0.496781 11.4671 0.0975342 12.4219 0.0975342ZM12.4219 1.99227C11.9445 1.99227 11.4866 2.19189 11.1491 2.54723C10.8115 2.90256 10.6219 3.38449 10.6219 3.88701C10.6219 4.38952 10.8115 4.87146 11.1491 5.22679C11.4866 5.58212 11.9445 5.78174 12.4219 5.78174C12.8993 5.78174 13.3571 5.58212 13.6947 5.22679C14.0322 4.87146 14.2219 4.38952 14.2219 3.88701C14.2219 3.38449 14.0322 2.90256 13.6947 2.54723C13.3571 2.19189 12.8993 1.99227 12.4219 1.99227ZM20.2219 1.36069C21.0175 1.36069 21.7806 1.6934 22.3432 2.28562C22.9058 2.87784 23.2219 3.68106 23.2219 4.51859C23.2219 5.35611 22.9058 6.15934 22.3432 6.75156C21.7806 7.34378 21.0175 7.67648 20.2219 7.67648C19.4262 7.67648 18.6632 7.34378 18.1006 6.75156C17.5379 6.15934 17.2219 5.35611 17.2219 4.51859C17.2219 3.68106 17.5379 2.87784 18.1006 2.28562C18.6632 1.6934 19.4262 1.36069 20.2219 1.36069ZM20.2219 3.25543C19.9036 3.25543 19.5984 3.38851 19.3733 3.6254C19.1483 3.86229 19.0219 4.18358 19.0219 4.51859C19.0219 4.8536 19.1483 5.17489 19.3733 5.41177C19.5984 5.64866 19.9036 5.78174 20.2219 5.78174C20.5401 5.78174 20.8454 5.64866 21.0704 5.41177C21.2954 5.17489 21.4219 4.8536 21.4219 4.51859C21.4219 4.18358 21.2954 3.86229 21.0704 3.6254C20.8454 3.38851 20.5401 3.25543 20.2219 3.25543ZM4.62188 1.36069C5.41752 1.36069 6.18059 1.6934 6.7432 2.28562C7.3058 2.87784 7.62188 3.68106 7.62188 4.51859C7.62188 5.35611 7.3058 6.15934 6.7432 6.75156C6.18059 7.34378 5.41752 7.67648 4.62188 7.67648C3.82623 7.67648 3.06316 7.34378 2.50055 6.75156C1.93795 6.15934 1.62188 5.35611 1.62188 4.51859C1.62188 3.68106 1.93795 2.87784 2.50055 2.28562C3.06316 1.6934 3.82623 1.36069 4.62188 1.36069ZM4.62188 3.25543C4.30362 3.25543 3.99839 3.38851 3.77335 3.6254C3.5483 3.86229 3.42188 4.18358 3.42188 4.51859C3.42188 4.8536 3.5483 5.17489 3.77335 5.41177C3.99839 5.64866 4.30362 5.78174 4.62188 5.78174C4.94014 5.78174 5.24536 5.64866 5.4704 5.41177C5.69545 5.17489 5.82188 4.8536 5.82188 4.51859C5.82188 4.18358 5.69545 3.86229 5.4704 3.6254C5.24536 3.38851 4.94014 3.25543 4.62188 3.25543ZM1.32188 17.7817C1.08318 17.7817 0.854262 17.8816 0.685479 18.0592C0.516696 18.2369 0.421875 18.4779 0.421875 18.7291V19.3607C0.421875 20.617 0.895981 21.8218 1.73989 22.7101C2.58381 23.5985 3.7284 24.0975 4.92188 24.0975H19.9219C21.1154 24.0975 22.2599 23.5985 23.1039 22.7101C23.9478 21.8218 24.4219 20.617 24.4219 19.3607V18.7291C24.4219 18.4779 24.3271 18.2369 24.1583 18.0592C23.9895 17.8816 23.7606 17.7817 23.5219 17.7817H1.32188ZM4.92188 22.2028C4.25775 22.2028 3.61693 21.9451 3.12193 21.479C2.62692 21.013 2.31247 20.3712 2.23867 19.6765H22.6051C22.5313 20.3712 22.2168 21.013 21.7218 21.479C21.2268 21.9451 20.586 22.2028 19.9219 22.2028H4.92188Z" fill="#12BD80"/>
</svg>
