<svg width="27" height="28" viewBox="0 0 27 28" fill="none" xmlns="http://www.w3.org/2000/svg">
<path d="M1 1L3.73211 1.5188L4.99703 18.0527C5.09817 19.403 6.12665 20.4392 7.36136 20.4349H21.6905C22.8687 20.4377 23.8683 19.4866 24.0351 18.2069L25.2817 8.75608C25.4209 7.69974 24.7523 6.71978 23.7908 6.56702C23.7068 6.55405 4.17083 6.54685 4.17083 6.54685" stroke="black" stroke-width="2" stroke-linecap="round" stroke-linejoin="round"/>
<path d="M15.9375 11.8731H19.5799" stroke="black" stroke-width="2" stroke-linecap="round" stroke-linejoin="round"/>
<path fill-rule="evenodd" clip-rule="evenodd" d="M6.78877 25.4304C7.18414 25.4304 7.50332 25.7821 7.50332 26.2144C7.50332 26.6482 7.18414 26.9998 6.78877 26.9998C6.3934 26.9998 6.07422 26.6482 6.07422 26.2144C6.07422 25.7821 6.3934 25.4304 6.78877 25.4304Z" fill="#130F26" stroke="black" stroke-width="2" stroke-linecap="round" stroke-linejoin="round"/>
<path fill-rule="evenodd" clip-rule="evenodd" d="M21.6013 25.4304C21.9966 25.4304 22.3171 25.7821 22.3171 26.2144C22.3171 26.6482 21.9966 26.9998 21.6013 26.9998C21.2059 26.9998 20.8867 26.6482 20.8867 26.2144C20.8867 25.7821 21.2059 25.4304 21.6013 25.4304Z" fill="#130F26" stroke="black" stroke-width="2" stroke-linecap="round" stroke-linejoin="round"/>
</svg>
