<svg width="27" height="28" viewBox="0 0 27 28" fill="none" xmlns="http://www.w3.org/2000/svg">
<path fill-rule="evenodd" clip-rule="evenodd" d="M17.1431 1.4804C18.4697 2.12094 18.8756 4.35168 19.4181 5.0687C19.9606 5.78572 20.7369 6.02951 21.1664 6.02951C23.4493 6.02951 25.3 8.27458 25.3 11.0423V20.2759C25.3 23.9885 22.8175 27 19.757 27H6.54303C3.48123 27 1 23.9885 1 20.2759V11.0423C1 8.27458 2.85074 6.02951 5.13363 6.02951C5.56183 6.02951 6.33812 5.78572 6.88191 5.0687C7.42439 4.35168 7.82896 2.12094 9.15561 1.4804C10.4836 0.839865 15.8164 0.839865 17.1431 1.4804Z" stroke="#130F26" stroke-width="2" stroke-linecap="round" stroke-linejoin="round"/>
<path d="M20.3696 10.1624H20.3814" stroke="#130F26" stroke-width="2" stroke-linecap="round" stroke-linejoin="round"/>
<path fill-rule="evenodd" clip-rule="evenodd" d="M17.324 15.943C17.324 13.1451 15.4548 10.8777 13.1483 10.8777C10.8418 10.8777 8.97266 13.1451 8.97266 15.943C8.97266 18.741 10.8418 21.0084 13.1483 21.0084C15.4548 21.0084 17.324 18.741 17.324 15.943Z" stroke="#130F26" stroke-width="2" stroke-linecap="round" stroke-linejoin="round"/>
</svg>
