<svg width="28" height="28" viewBox="0 0 28 28" fill="none" xmlns="http://www.w3.org/2000/svg">
<path d="M14.4806 24.8191L13.5567 24.4365L14.4806 24.8191ZM1.42685 17.0879L0.455211 17.3244L1.42685 17.0879ZM1.42168 9.99372L0.450043 9.75724H0.450042L1.42168 9.99372ZM26.614 10.3129L27.5857 10.0764L26.614 10.3129ZM26.614 16.7474L25.6424 16.511L26.614 16.7474ZM9.89495 26.7448L10.2694 25.8175H10.2694L9.89495 26.7448ZM10.4663 1.39204L10.6869 2.36743L10.4663 1.39204ZM17.4917 1.39204L17.2712 2.36743L17.4917 1.39204ZM9.71424 26.6718L9.33983 27.5991H9.33983L9.71424 26.6718ZM18.0746 1.52382L18.2951 0.548431L18.0746 1.52382ZM26.4782 9.7546L25.5065 9.99108L26.4782 9.7546ZM10.1252 1.46916L9.9047 0.493779L10.1252 1.46916ZM8.94725 8.75035C8.39497 8.75035 7.94725 9.19806 7.94725 9.75035C7.94725 10.3026 8.39497 10.7503 8.94725 10.7503V8.75035ZM18.1722 10.7503C18.7244 10.7503 19.1722 10.3026 19.1722 9.75035C19.1722 9.19806 18.7244 8.75035 18.1722 8.75035V10.7503ZM8.94725 13.7426C8.39497 13.7426 7.94725 14.1903 7.94725 14.7426C7.94725 15.2949 8.39497 15.7426 8.94725 15.7426V13.7426ZM14.8176 15.7426C15.3699 15.7426 15.8176 15.2949 15.8176 14.7426C15.8176 14.1903 15.3699 13.7426 14.8176 13.7426V15.7426ZM10.3457 2.44455L10.6869 2.36743L10.2458 0.416657L9.9047 0.493779L10.3457 2.44455ZM17.2712 2.36743L17.8541 2.4992L18.2951 0.548431L17.7122 0.416658L17.2712 2.36743ZM10.2694 25.8175L10.0886 25.7446L9.33983 27.5991L9.52055 27.672L10.2694 25.8175ZM25.5065 9.99108L25.6424 10.5494L27.5857 10.0764L27.4498 9.51813L25.5065 9.99108ZM17.322 23.0053H15.6988V25.0053H17.322V23.0053ZM15.6988 23.0053C14.7599 23.0053 13.9136 23.5748 13.5567 24.4365L15.4045 25.2017C15.4528 25.085 15.5714 25.0053 15.6988 25.0053V23.0053ZM2.39849 16.8514C1.87028 14.6811 1.86581 12.3976 2.39332 10.2302L0.450042 9.75724C-0.153799 12.2383 -0.147927 14.8462 0.455211 17.3244L2.39849 16.8514ZM25.6424 10.5494C26.1192 12.5085 26.1192 14.5519 25.6424 16.511L27.5857 16.9839C28.1381 14.7141 28.1381 12.3463 27.5857 10.0764L25.6424 10.5494ZM9.52055 27.672C11.8264 28.6031 14.4595 27.4837 15.4045 25.2017L13.5567 24.4365C13.0294 25.7098 11.5519 26.3354 10.2694 25.8175L9.52055 27.672ZM10.6869 2.36743C12.8538 1.87752 15.1042 1.87752 17.2712 2.36743L17.7122 0.416658C15.2549 -0.138886 12.7032 -0.138886 10.2458 0.416657L10.6869 2.36743ZM10.0886 25.7446C6.24216 24.1914 3.3732 20.8563 2.39849 16.8514L0.455211 17.3244C1.58185 21.9535 4.89419 25.804 9.33983 27.5991L10.0886 25.7446ZM25.6424 16.511C24.7163 20.316 21.2809 23.0053 17.322 23.0053V25.0053C22.1933 25.0053 26.4391 21.6948 27.5857 16.9839L25.6424 16.511ZM17.8541 2.4992C21.6362 3.35425 24.5983 6.25924 25.5065 9.99108L27.4498 9.51813C26.3603 5.04177 22.8112 1.56942 18.2951 0.548431L17.8541 2.4992ZM9.9047 0.493779C5.24049 1.54825 1.57515 5.13441 0.450043 9.75724L2.39332 10.2302C3.33722 6.35188 6.41551 3.33308 10.3457 2.44455L9.9047 0.493779ZM8.94725 10.7503H18.1722V8.75035H8.94725V10.7503ZM8.94725 15.7426H14.8176V13.7426H8.94725V15.7426Z" fill="#12BD80"/>
</svg>
