<svg width="26" height="26" viewBox="0 0 26 26" fill="none" xmlns="http://www.w3.org/2000/svg">
<path fill-rule="evenodd" clip-rule="evenodd" d="M7.36372 1.94979C4.07472 1.94979 1.94922 4.20269 1.94922 7.69059V18.309C1.94922 21.7969 4.07472 24.0498 7.36372 24.0498H18.6321C21.9224 24.0498 24.0492 21.7969 24.0492 18.309V7.69059C24.0492 4.20269 21.9224 1.94979 18.6334 1.94979H7.36372ZM18.6329 26H7.3645C2.9588 26 0 22.9086 0 18.3092V7.6908C0 3.0914 2.9588 0 7.3645 0H18.6342C23.0399 0 26 3.0914 26 7.6908V18.3092C26 22.9086 23.0399 26 18.6329 26Z" fill="#12BD80"/>
<path fill-rule="evenodd" clip-rule="evenodd" d="M11.4574 17.0601C11.2091 17.0601 10.9582 16.9652 10.7684 16.7741L7.68216 13.6892C7.30126 13.3083 7.30126 12.6921 7.68216 12.3112C8.06306 11.9303 8.67926 11.9303 9.06016 12.3112L11.4574 14.7058L16.9382 9.22635C17.3191 8.84545 17.9353 8.84545 18.3162 9.22635C18.6971 9.60725 18.6971 10.2234 18.3162 10.6043L12.1464 16.7741C11.9566 16.9652 11.707 17.0601 11.4574 17.0601Z" fill="#12BD80"/>
</svg>
