<svg width="26" height="26" viewBox="0 0 26 26" fill="none" xmlns="http://www.w3.org/2000/svg">
<path fill-rule="evenodd" clip-rule="evenodd" d="M20.1643 12.6144C19.7248 12.6144 19.3415 12.1948 19.2782 11.6141C19.2101 10.9777 19.5505 10.3908 20.0413 10.3026C21.2832 10.0765 22.2207 8.67982 22.2231 7.05085C22.2231 5.43583 21.3298 4.0701 20.0986 3.80841C19.6114 3.70467 19.2806 3.10697 19.3606 2.47366C19.4418 1.84034 19.8992 1.41607 20.39 1.51672C22.4894 1.96422 24.0144 4.29308 24.0144 7.05395C24.0096 9.83341 22.4082 12.218 20.2885 12.6036C20.2467 12.6113 20.2049 12.6144 20.1643 12.6144Z" fill="#12BD80"/>
<mask id="mask0_777_436" style="mask-type:alpha" maskUnits="userSpaceOnUse" x="21" y="15" width="5" height="8">
<path fill-rule="evenodd" clip-rule="evenodd" d="M21.4688 15.4871H25.9995V22.5008H21.4688V15.4871Z" fill="white"/>
</mask>
<g mask="url(#mask0_777_436)">
<path fill-rule="evenodd" clip-rule="evenodd" d="M23.7177 22.5008C23.3571 22.5008 23.0167 22.2159 22.8806 21.7529C22.7039 21.1537 22.9367 20.4817 23.3989 20.254C24.2086 19.8545 24.2086 19.4132 24.2086 19.2011C24.2086 18.5229 23.5434 18.0491 22.2322 17.7951C21.7437 17.6991 21.4058 17.1092 21.4786 16.4727C21.5515 15.8379 22.0053 15.4152 22.4985 15.4972C25.392 16.0593 25.9998 17.8214 25.9998 19.2011C25.9998 20.0435 25.7443 21.5811 24.0366 22.425C23.9315 22.4761 23.824 22.5008 23.7177 22.5008Z" fill="#12BD80"/>
</g>
<path fill-rule="evenodd" clip-rule="evenodd" d="M13.0018 18.4482C10.1644 18.4482 6.78125 18.9004 6.78125 21.0527C6.78125 23.2221 10.1644 23.6773 13.0018 23.6773C15.8392 23.6773 19.2212 23.2267 19.2212 21.0791C19.2212 18.905 15.8392 18.4482 13.0018 18.4482ZM13.0021 25.9999C11.0209 25.9999 4.99023 25.9999 4.99023 21.0526C4.99023 16.1255 11.0209 16.1255 13.0021 16.1255C14.9833 16.1255 21.0127 16.1255 21.0127 21.079C21.0127 25.9999 15.1934 25.9999 13.0021 25.9999Z" fill="#12BD80"/>
<path fill-rule="evenodd" clip-rule="evenodd" d="M12.9998 2.32266C10.9792 2.32266 9.33596 4.45487 9.33596 7.07484C9.33238 8.34456 9.70736 9.53222 10.394 10.4288C11.0807 11.3253 11.9954 11.8224 12.9699 11.827L12.9998 12.9883V11.827C15.0203 11.827 16.6647 9.69635 16.6647 7.07484C16.6647 4.45487 15.0203 2.32266 12.9998 2.32266ZM13 14.1497H12.9678C11.5109 14.1435 10.1459 13.4033 9.12369 12.0655C8.09908 10.7292 7.539 8.95465 7.54497 7.07019C7.54497 3.17431 9.99187 0 13 0C16.0094 0 18.4563 3.17431 18.4563 7.07484C18.4563 10.9754 16.0094 14.1497 13 14.1497Z" fill="#12BD80"/>
<path fill-rule="evenodd" clip-rule="evenodd" d="M5.83326 12.6142C5.79266 12.6142 5.75086 12.6111 5.70907 12.6034C3.58937 12.2178 1.98915 9.83321 1.98438 7.05685C1.98438 4.29288 3.50936 1.96402 5.60875 1.51652C6.11151 1.41432 6.55695 1.84324 6.63815 2.47346C6.71816 3.10677 6.38737 3.70447 5.90014 3.80822C4.66892 4.0699 3.77567 5.43563 3.77567 7.05375C3.77805 8.67962 4.7155 10.0779 5.95627 10.3024C6.44708 10.3906 6.78742 10.9775 6.71936 11.6139C6.65606 12.1946 6.27273 12.6142 5.83326 12.6142Z" fill="#12BD80"/>
<path fill-rule="evenodd" clip-rule="evenodd" d="M2.2833 22.501C2.17702 22.501 2.06954 22.4762 1.96445 22.4251C0.255558 21.5797 0 20.0421 0 19.2013C0 17.8232 0.607845 16.0595 3.50257 15.4974C3.99577 15.4169 4.44718 15.8381 4.52122 16.4729C4.59407 17.1093 4.25611 17.6993 3.76768 17.7953C2.45646 18.0492 1.79129 18.5231 1.79129 19.2013C1.79129 19.4134 1.79129 19.8532 2.60215 20.2542C3.0643 20.4818 3.29717 21.1539 3.12043 21.7531C2.98429 22.2161 2.64395 22.501 2.2833 22.501Z" fill="#12BD80"/>
</svg>
