<svg width="26" height="26" viewBox="0 0 26 26" fill="none" xmlns="http://www.w3.org/2000/svg">
<mask id="mask0_777_920" style="mask-type:alpha" maskUnits="userSpaceOnUse" x="0" y="0" width="26" height="26">
<path fill-rule="evenodd" clip-rule="evenodd" d="M0 0.0148926H26V26H0V0.0148926Z" fill="white"/>
</mask>
<g mask="url(#mask0_777_920)">
<path fill-rule="evenodd" clip-rule="evenodd" d="M6.97207 1.97815C4.44567 1.97815 2.3477 3.73462 2.28824 5.90075V19.8988C2.23183 22.1409 4.29015 23.9876 6.87602 24.0374H19.1711C21.7158 23.9471 23.7314 22.1317 23.7131 19.9067V8.29724L16.6462 1.97815H6.99037H6.97207ZM6.99084 26.0006H6.82465C2.97939 25.926 -0.0821753 23.1801 0.00168238 19.8779V5.87719C0.0901141 2.62996 3.21419 0.0148926 6.96949 0.0148926H6.99541H17.1346C17.4456 0.0148926 17.7429 0.123526 17.9594 0.315926L25.6819 7.22268C25.8863 7.40461 26.0006 7.64936 26.0006 7.90197V19.8988C26.0281 23.1827 23.0488 25.8658 19.2173 25.9993L6.99084 26.0006Z" fill="#12BD80"/>
</g>
<path fill-rule="evenodd" clip-rule="evenodd" d="M24.8493 9.14095H20.6487C17.8586 9.1344 15.5898 7.18161 15.5898 4.78905V0.981631C15.5898 0.439771 16.1021 0 16.7334 0C17.3646 0 17.8769 0.439771 17.8769 0.981631V4.78905C17.8769 6.10313 19.1225 7.17376 20.6518 7.17769H24.8493C25.4805 7.17769 25.9928 7.61746 25.9928 8.15932C25.9928 8.70118 25.4805 9.14095 24.8493 9.14095Z" fill="#12BD80"/>
<path fill-rule="evenodd" clip-rule="evenodd" d="M16.4491 18.4652H8.21578C7.58456 18.4652 7.07227 18.0254 7.07227 17.4836C7.07227 16.9417 7.58456 16.502 8.21578 16.502H16.4491C17.0803 16.502 17.5926 16.9417 17.5926 17.4836C17.5926 18.0254 17.0803 18.4652 16.4491 18.4652Z" fill="#12BD80"/>
<path fill-rule="evenodd" clip-rule="evenodd" d="M13.3307 13.5546H8.21383C7.58261 13.5546 7.07031 13.1148 7.07031 12.5729C7.07031 12.0311 7.58261 11.5913 8.21383 11.5913H13.3307C13.9619 11.5913 14.4742 12.0311 14.4742 12.5729C14.4742 13.1148 13.9619 13.5546 13.3307 13.5546Z" fill="#12BD80"/>
</svg>
