<svg width="28" height="28" viewBox="0 0 28 28" fill="none" xmlns="http://www.w3.org/2000/svg">
<path d="M1 1H21.4286C22.9062 1 24.3233 1.41547 25.3682 2.15502C26.413 2.89457 27 3.89762 27 4.9435V23.3465C27 23.6951 26.8043 24.0295 26.4561 24.276C26.1078 24.5225 25.6354 24.661 25.1429 24.661H19.5714" stroke="#12BD80" stroke-width="2" stroke-linecap="round" stroke-linejoin="round"/>
<path d="M14 14.145V16.774M1 1L15.092 2.99541C16.3549 3.17407 17.4913 3.65687 18.3079 4.36169C19.1246 5.06651 19.5711 5.94981 19.5714 6.86135V25.6863C19.5713 25.8807 19.5102 26.0727 19.3926 26.2483C19.275 26.424 19.1038 26.579 18.8913 26.7023C18.6789 26.8255 18.4305 26.9138 18.164 26.9609C17.8975 27.008 17.6196 27.0126 17.3503 26.9745L3.98629 25.0843C3.14397 24.9651 2.38604 24.643 1.84155 24.1727C1.29705 23.7025 0.99966 23.1132 1 22.5052V1Z" stroke="#12BD80" stroke-width="2" stroke-linecap="round" stroke-linejoin="round"/>
</svg>
