<svg width="28" height="26" viewBox="0 0 28 26" fill="none" xmlns="http://www.w3.org/2000/svg">
<path d="M1.52738 17.2017L2.49641 16.9547L1.52738 17.2017ZM1.52738 8.79833L0.558352 8.55138L1.52738 8.79833ZM26.4726 8.79834L27.4417 8.55139L26.4726 8.79834ZM26.4726 17.2017L27.4417 17.4486L26.4726 17.2017ZM18.2634 24.5453L18.0524 23.5678L18.2634 24.5453ZM9.73659 24.5453L9.94763 23.5678L9.73659 24.5453ZM9.73659 1.45473L9.52555 0.477253V0.477253L9.73659 1.45473ZM18.2634 1.45473L18.0524 2.43221L18.2634 1.45473ZM9.1155 24.4112L8.90446 25.3887L9.1155 24.4112ZM18.8845 24.4112L19.0955 25.3887H19.0955L18.8845 24.4112ZM18.8845 1.58882L19.0955 0.611347V0.611347L18.8845 1.58882ZM9.1155 1.58883L9.32654 2.5663L9.1155 1.58883ZM4.03757 4.84648C3.58429 4.53094 2.96105 4.6426 2.64552 5.09588C2.32998 5.54915 2.44164 6.17239 2.89492 6.48793L4.03757 4.84648ZM11.376 11.1734L10.8047 11.9941L11.376 11.1734ZM16.624 11.1734L17.1953 11.9941L16.624 11.1734ZM25.1051 6.48793C25.5584 6.17239 25.67 5.54915 25.3545 5.09588C25.0389 4.6426 24.4157 4.53094 23.9624 4.84648L25.1051 6.48793ZM9.32654 2.5663L9.94763 2.43221L9.52555 0.477253L8.90446 0.611348L9.32654 2.5663ZM18.0524 2.43221L18.6735 2.5663L19.0955 0.611347L18.4745 0.477254L18.0524 2.43221ZM18.6735 23.4337L18.0524 23.5678L18.4745 25.5227L19.0955 25.3887L18.6735 23.4337ZM9.94763 23.5678L9.32654 23.4337L8.90446 25.3887L9.52555 25.5227L9.94763 23.5678ZM2.49641 16.9547C1.83453 14.3576 1.83453 11.6424 2.49641 9.04528L0.558352 8.55138C-0.186117 11.4726 -0.186118 14.5274 0.558352 17.4486L2.49641 16.9547ZM25.5036 9.04529C26.1655 11.6424 26.1655 14.3576 25.5036 16.9547L27.4417 17.4486C28.1861 14.5274 28.1861 11.4726 27.4417 8.55139L25.5036 9.04529ZM18.0524 23.5678C15.3832 24.1441 12.6168 24.1441 9.94763 23.5678L9.52555 25.5227C12.4729 26.1591 15.5271 26.1591 18.4745 25.5227L18.0524 23.5678ZM9.94763 2.43221C12.6168 1.85593 15.3832 1.85593 18.0524 2.43221L18.4745 0.477254C15.5271 -0.159084 12.4729 -0.159085 9.52555 0.477253L9.94763 2.43221ZM9.32654 23.4337C5.95798 22.7064 3.32047 20.1883 2.49641 16.9547L0.558352 17.4486C1.57524 21.4388 4.81637 24.506 8.90446 25.3887L9.32654 23.4337ZM19.0955 25.3887C23.1836 24.506 26.4248 21.4388 27.4417 17.4486L25.5036 16.9547C24.6795 20.1883 22.042 22.7064 18.6735 23.4337L19.0955 25.3887ZM18.6735 2.5663C22.042 3.29359 24.6795 5.81173 25.5036 9.04529L27.4417 8.55139C26.4248 4.56117 23.1836 1.49398 19.0955 0.611347L18.6735 2.5663ZM8.90446 0.611348C4.81638 1.49398 1.57524 4.56116 0.558352 8.55138L2.49641 9.04528C3.32047 5.81173 5.95798 3.29359 9.32654 2.5663L8.90446 0.611348ZM2.89492 6.48793L10.8047 11.9941L11.9473 10.3527L4.03757 4.84648L2.89492 6.48793ZM17.1953 11.9941L25.1051 6.48793L23.9624 4.84648L16.0527 10.3527L17.1953 11.9941ZM10.8047 11.9941C12.7177 13.3258 15.2823 13.3258 17.1953 11.9941L16.0527 10.3527C14.8264 11.2063 13.1736 11.2063 11.9473 10.3527L10.8047 11.9941Z" fill="#12BD80"/>
</svg>
