<svg width="27" height="28" viewBox="0 0 27 28" fill="none" xmlns="http://www.w3.org/2000/svg">
<path d="M13.1886 27C11.5931 27 10.0132 26.6637 8.53917 26.0104C7.06512 25.3571 5.72577 24.3995 4.59758 23.1924C3.46939 21.9852 2.57446 20.5521 1.96389 18.9749C1.35332 17.3977 1.03906 15.7072 1.03906 14C1.03906 12.2928 1.35332 10.6023 1.96389 9.02512C2.57446 7.44788 3.46939 6.01477 4.59758 4.80761C5.72577 3.60045 7.06512 2.64288 8.53917 1.98957C10.0132 1.33625 11.5931 1 13.1886 1C16.4109 1 19.5011 2.36964 21.7796 4.80761C24.0581 7.24558 25.3381 10.5522 25.3381 14C25.3381 17.4478 24.0581 20.7544 21.7796 23.1924C19.5011 25.6304 16.4109 27 13.1886 27ZM13.1886 27V12.1429C13.1886 11.1578 13.5543 10.213 14.2053 9.51646C14.8563 8.8199 15.7392 8.42857 16.6599 8.42857H17.5277M8.84948 15.8571H17.5277" stroke="black" stroke-width="1.8"/>
</svg>
