<svg width="21" height="23" viewBox="0 0 21 23" fill="none" xmlns="http://www.w3.org/2000/svg">
<path d="M8.10612 15.9762L8.74613 15.8517C8.87012 15.8268 9.01813 15.7906 9.18913 15.7408C11.3031 15.1411 12.7031 13.3533 12.7031 11.4207C12.7031 9.00488 10.5271 6.8946 7.70312 6.8946C4.87913 6.8946 2.70312 9.00488 2.70312 11.4207C2.70312 12.7989 3.40513 14.1114 4.63412 14.985L4.67013 15.0076L5.70312 15.6526V18.779L8.10612 15.9762ZM9.08813 18.0808L5.42112 22.358C5.28254 22.5197 5.10444 22.631 4.90963 22.6775C4.71483 22.724 4.51218 22.7037 4.32765 22.6191C4.14311 22.5345 3.9851 22.3895 3.87384 22.2027C3.76258 22.0159 3.70313 21.7957 3.70312 21.5704V16.9878C3.65845 16.9604 3.61443 16.9318 3.57113 16.9018C1.83213 15.6662 0.703125 13.6713 0.703125 11.4207C0.703125 7.67082 3.83713 4.63155 7.70312 4.63155C11.5691 4.63155 14.7031 7.67082 14.7031 11.4207C14.7031 14.5052 12.5821 17.11 9.67712 17.936C9.48243 17.9924 9.28597 18.0408 9.08813 18.0808ZM7.63912 3.50003C8.84912 1.47122 11.1131 0.105469 13.7031 0.105469C17.5691 0.105469 20.7031 3.14474 20.7031 6.8946C20.7031 9.14519 19.5731 11.1401 17.8351 12.3757C17.7918 12.4057 17.7478 12.4344 17.7031 12.4617V17.0443C17.7031 17.2696 17.6437 17.4898 17.5324 17.6766C17.4212 17.8634 17.2631 18.0084 17.0786 18.093C16.8941 18.1776 16.6914 18.198 16.4966 18.1514C16.3018 18.1049 16.1237 17.9936 15.9851 17.8319L14.2501 15.8087L15.2931 13.7742L15.7031 14.2529V11.1265L16.7361 10.4815L16.7721 10.4589C18.0021 9.58535 18.7031 8.27279 18.7031 6.8946C18.7031 4.4788 16.5271 2.36851 13.7031 2.36851C12.4231 2.36851 11.2771 2.80188 10.4061 3.50003H7.63912Z" fill="black"/>
</svg>
