<svg width="28" height="28" viewBox="0 0 28 28" fill="none" xmlns="http://www.w3.org/2000/svg">
<path d="M25.5214 6.61686C23.2717 7.41927 20.272 4.20964 21.0219 1.80241M20.84 1.99711L15.9931 7.18328C13.8859 9.43792 12.3911 12.2629 11.6683 15.3563L11.4341 16.3586C11.3612 16.671 11.6256 16.9539 11.9175 16.8758L12.8543 16.6252C15.7452 15.8519 18.3854 14.2524 20.4925 11.9977L25.3394 6.81156C25.9361 6.17312 26.2713 5.30722 26.2713 4.40433C26.2713 2.52417 24.8468 1 23.0897 1C22.2459 1 21.4366 1.35867 20.84 1.99711Z" stroke="black" stroke-width="2"/>
<path d="M14.1222 1C12.7407 1 11.3593 1.1699 10.0054 1.50971C6.25605 2.45076 3.32851 5.58323 2.44902 9.59507C1.81387 12.4924 1.81387 15.5076 2.44902 18.4049C3.32851 22.4168 6.25606 25.5492 10.0054 26.4903C12.7132 27.1699 15.5312 27.1699 18.2389 26.4903C21.9883 25.5492 24.9159 22.4168 25.7954 18.4049C26.1129 16.9563 26.2717 15.4781 26.2717 14" stroke="black" stroke-width="2" stroke-linecap="round"/>
</svg>
