<svg width="29" height="29" viewBox="0 0 29 29" fill="none" xmlns="http://www.w3.org/2000/svg">
<path d="M25.5319 10.9299C25.5319 10.3776 25.0842 9.92988 24.5319 9.92988C23.9797 9.92988 23.5319 10.3776 23.5319 10.9299H25.5319ZM4.47194 10.9299C4.47194 10.3776 4.02423 9.92988 3.47194 9.92988C2.91966 9.92988 2.47194 10.3776 2.47194 10.9299H4.47194ZM17.6322 26.8016L17.4023 25.8283L17.6322 26.8016ZM10.3717 26.8016L10.6016 25.8283L10.3717 26.8016ZM18.0875 4.13405L17.3778 4.83865L18.0875 4.13405ZM26.2923 13.8166C26.6815 14.2085 27.3146 14.2107 27.7065 13.8216C28.0985 13.4324 28.1007 12.7993 27.7116 12.4074L26.2923 13.8166ZM9.91645 4.13405L10.6261 4.83865L9.91645 4.13405ZM0.292345 12.4074C-0.0967931 12.7993 -0.0945491 13.4324 0.297357 13.8216C0.689263 14.2107 1.32242 14.2085 1.71156 13.8166L0.292345 12.4074ZM10.7063 23.3539L9.72351 23.1694V23.1695L10.7063 23.3539ZM10.7343 23.2051L11.7171 23.3896V23.3896L10.7343 23.2051ZM17.2696 23.2051L16.2868 23.3896L16.2868 23.3896L17.2696 23.2051ZM17.2976 23.3539L18.2804 23.1695V23.1694L17.2976 23.3539ZM16.879 26.5773L15.976 26.1476L15.976 26.1476L16.879 26.5773ZM15.8073 26.5021C15.57 27.0008 15.7819 27.5974 16.2806 27.8348C16.7793 28.0721 17.3759 27.8602 17.6133 27.3615L15.8073 26.5021ZM11.1249 26.5773L10.222 27.0071L10.222 27.0071L11.1249 26.5773ZM10.3907 27.3615C10.628 27.8602 11.2246 28.0721 11.7233 27.8348C12.222 27.5974 12.4339 27.0008 12.1966 26.5021L10.3907 27.3615ZM13.079 20.6416L12.8117 19.678H12.8117L13.079 20.6416ZM14.9249 20.6416L15.1922 19.678H15.1922L14.9249 20.6416ZM23.5319 10.9299V18.0342H25.5319V10.9299H23.5319ZM4.47194 18.0342V10.9299H2.47194V18.0342H4.47194ZM17.4023 25.8283C15.1657 26.3567 12.8382 26.3567 10.6016 25.8283L10.1418 27.7748C12.6807 28.3746 15.3231 28.3746 17.8621 27.7748L17.4023 25.8283ZM10.6016 25.8283C7.01524 24.9811 4.47194 21.7562 4.47194 18.0342H2.47194C2.47194 22.6746 5.64406 26.7122 10.1418 27.7748L10.6016 25.8283ZM17.8621 27.7748C22.3598 26.7122 25.5319 22.6746 25.5319 18.0342H23.5319C23.5319 21.7562 20.9886 24.9811 17.4023 25.8283L17.8621 27.7748ZM17.3778 4.83865L26.2923 13.8166L27.7116 12.4074L18.7971 3.42945L17.3778 4.83865ZM9.20684 3.42945L0.292345 12.4074L1.71156 13.8166L10.6261 4.83865L9.20684 3.42945ZM18.7971 3.42945C17.8541 2.47975 17.0773 1.69447 16.3805 1.15903C15.6609 0.606079 14.909 0.224609 14.002 0.224609V2.22461C14.2915 2.22461 14.6194 2.32805 15.1619 2.74491C15.7272 3.17928 16.3949 3.84872 17.3778 4.83865L18.7971 3.42945ZM10.6261 4.83865C11.609 3.84872 12.2767 3.17928 12.842 2.74491C13.3845 2.32805 13.7124 2.22461 14.002 2.22461V0.224609C13.0949 0.224609 12.343 0.606078 11.6234 1.15903C10.9266 1.69447 10.1498 2.47975 9.20684 3.42945L10.6261 4.83865ZM11.6892 23.5384L11.7171 23.3896L9.75144 23.0206L9.72351 23.1694L11.6892 23.5384ZM16.2868 23.3896L16.3147 23.5384L18.2804 23.1694L18.2525 23.0206L16.2868 23.3896ZM15.976 26.1476L15.8073 26.5021L17.6133 27.3615L17.7819 27.0071L15.976 26.1476ZM10.222 27.0071L10.3907 27.3615L12.1966 26.5021L12.0279 26.1476L10.222 27.0071ZM16.3147 23.5384C16.4807 24.4226 16.3618 25.3368 15.976 26.1476L17.7819 27.0071C18.3499 25.8136 18.5244 24.4692 18.2804 23.1695L16.3147 23.5384ZM9.72351 23.1695C9.47954 24.4692 9.65401 25.8136 10.222 27.0071L12.0279 26.1476C11.6421 25.3368 11.5232 24.4226 11.6892 23.5384L9.72351 23.1695ZM13.3464 21.6052C13.7755 21.4862 14.2284 21.4862 14.6575 21.6052L15.1922 19.678C14.4133 19.4619 13.5906 19.4619 12.8117 19.678L13.3464 21.6052ZM18.2525 23.0206C17.9508 21.4137 16.7661 20.1147 15.1922 19.678L14.6575 21.6052C15.4902 21.8363 16.1248 22.5263 16.2868 23.3896L18.2525 23.0206ZM11.7171 23.3896C11.8792 22.5263 12.5137 21.8363 13.3464 21.6052L12.8117 19.678C11.2378 20.1147 10.0531 21.4137 9.75144 23.0206L11.7171 23.3896Z" fill="#CDCDCD"/>
</svg>
