<svg width="40" height="39" viewBox="0 0 40 39" fill="none" xmlns="http://www.w3.org/2000/svg">
<path d="M7.90321 37.9377H33.6397C34.6148 37.9377 35.55 37.5504 36.2395 36.8608C36.929 36.1713 37.3164 35.2362 37.3164 34.2611V17.7162C37.3178 17.4742 37.2714 17.2344 37.1799 17.0104C37.0884 16.7864 36.9536 16.5827 36.7833 16.411L22.0767 1.70437C21.7322 1.36198 21.2663 1.1698 20.7807 1.1698C20.295 1.1698 19.8291 1.36198 19.4846 1.70437L4.77806 16.411C4.60436 16.5812 4.46617 16.7842 4.37151 17.0083C4.27684 17.2323 4.22757 17.4729 4.22656 17.7162V34.2611C4.22656 35.2362 4.61392 36.1713 5.30343 36.8608C5.99293 37.5504 6.9281 37.9377 7.90321 37.9377ZM17.0948 34.2611V25.0695H24.4481V34.2611H17.0948ZM7.90321 18.4699L20.7715 5.60161L33.6397 18.4699V34.2611H28.1248V25.0695C28.1248 24.0943 27.7374 23.1592 27.0479 22.4697C26.3584 21.7802 25.4232 21.3928 24.4481 21.3928H17.0948C16.1197 21.3928 15.1845 21.7802 14.495 22.4697C13.8055 23.1592 13.4182 24.0943 13.4182 25.0695V34.2611H7.90321V18.4699Z" fill="black"/>
</svg>
