<svg width="26" height="26" viewBox="0 0 26 26" fill="none" xmlns="http://www.w3.org/2000/svg">
<mask id="mask0_777_905" style="mask-type:alpha" maskUnits="userSpaceOnUse" x="0" y="0" width="26" height="26">
<path fill-rule="evenodd" clip-rule="evenodd" d="M0 0H25.996V26H0V0Z" fill="white"/>
</mask>
<g mask="url(#mask0_777_905)">
<path fill-rule="evenodd" clip-rule="evenodd" d="M7.36326 1.95451C4.07874 1.95451 1.95508 4.2074 1.95508 7.69293V18.3072C1.95508 21.794 4.07874 24.0456 7.36326 24.0456H18.6278C21.9175 24.0456 24.0425 21.794 24.0425 18.3072V7.69293C24.0451 5.91694 23.5031 4.43412 22.4765 3.40605C21.528 2.45616 20.2004 1.95451 18.6343 1.95451H7.36326ZM18.627 26.0001H7.36248C2.9588 26.0001 0 22.9081 0 18.3072V7.69293C0 3.09203 2.9588 0 7.36248 0H18.6335C20.7285 0 22.5356 0.699713 23.858 2.02487C25.2404 3.40866 25.9986 5.4218 25.996 7.69424V18.3072C25.996 22.9081 23.0346 26.0001 18.627 26.0001Z" fill="#12BD80"/>
</g>
<path fill-rule="evenodd" clip-rule="evenodd" d="M8.93445 7.41325C8.14752 7.41325 7.50781 8.05302 7.50781 8.84134C7.50781 9.62835 8.14752 10.2681 8.93575 10.2681C9.72268 10.2681 10.3637 9.62835 10.3637 8.84264C10.3624 8.05432 9.72138 7.41455 8.93445 7.41325ZM8.93496 12.2226C7.06927 12.2226 5.55273 10.7059 5.55273 8.84134C5.55273 6.97544 7.06927 5.45874 8.93496 5.45874C10.7994 5.46004 12.3159 6.97674 12.3172 8.84003V8.84134C12.3172 10.7059 10.8007 12.2226 8.93496 12.2226Z" fill="#12BD80"/>
<path fill-rule="evenodd" clip-rule="evenodd" d="M2.27849 23.599C2.11694 23.599 1.95278 23.5586 1.80165 23.4739C1.33001 23.2094 1.16455 22.6139 1.42772 22.1435C1.5059 22.0028 3.3755 18.6971 5.43272 17.0032C7.06391 15.6611 8.82016 16.3986 10.2351 16.9941C11.0676 17.3446 11.8545 17.6755 12.6102 17.6755C13.3033 17.6755 14.1723 16.4507 14.941 15.3705C16.0081 13.8642 17.2197 12.1599 18.9942 12.1599C21.8214 12.1599 24.2617 14.6825 25.5737 16.0377L25.7248 16.194C26.1 16.581 26.0909 17.1999 25.704 17.5765C25.3196 17.9531 24.7008 17.9439 24.3229 17.5556L24.1692 17.3967C23.0591 16.2487 20.9928 14.1144 18.9942 14.1144C18.2281 14.1144 17.3292 15.3822 16.5331 16.5015C15.4413 18.0391 14.3117 19.63 12.6102 19.63C11.4598 19.63 10.4057 19.187 9.47681 18.7948C7.99936 18.172 7.32969 17.9726 6.67435 18.5121C4.89725 19.9766 3.1488 23.07 3.13187 23.0999C2.95338 23.4192 2.62115 23.599 2.27849 23.599Z" fill="#12BD80"/>
</svg>
