<svg width="28" height="28" viewBox="0 0 28 28" fill="none" xmlns="http://www.w3.org/2000/svg">
<path d="M9.66602 9.66675H15.4438M9.66602 18.3334H13.9993M9.66602 14.0001H18.3327" stroke="#12BD80" stroke-width="2" stroke-linecap="round"/>
<path d="M1.50971 9.59507C2.45076 5.58323 5.58323 2.45076 9.59507 1.50971C12.4924 0.830096 15.5076 0.830097 18.4049 1.50971C22.4168 2.45076 25.5492 5.58324 26.4903 9.59507C27.1699 12.4924 27.1699 15.5076 26.4903 18.4049C25.5492 22.4168 22.4168 25.5492 18.4049 26.4903C15.5076 27.1699 12.4924 27.1699 9.59507 26.4903C5.58324 25.5492 2.45076 22.4168 1.50971 18.4049C0.830096 15.5076 0.830096 12.4924 1.50971 9.59507Z" stroke="#12BD80" stroke-width="2"/>
</svg>
