<svg width="36" height="36" viewBox="0 0 36 36" fill="none" xmlns="http://www.w3.org/2000/svg">
<path fill-rule="evenodd" clip-rule="evenodd" d="M10.6054 0.806923C12.4719 0.720999 13.067 0.701904 17.8215 0.701904C22.576 0.701904 23.1711 0.72259 25.0359 0.806923C26.9008 0.891256 28.1738 1.18881 29.2876 1.62002C30.454 2.06078 31.5121 2.74977 32.3873 3.64084C33.2783 4.5144 33.9657 5.57095 34.4049 6.73889C34.8377 7.85272 35.1337 9.12568 35.2196 10.9874C35.3055 12.857 35.3246 13.4521 35.3246 18.205C35.3246 22.9595 35.3039 23.5546 35.2196 25.4211C35.1352 27.2828 34.8377 28.5557 34.4049 29.6696C33.9657 30.8377 33.2772 31.896 32.3873 32.7708C31.5121 33.6619 30.454 34.3493 29.2876 34.7884C28.1738 35.2212 26.9008 35.5172 25.0391 35.6031C23.1711 35.689 22.576 35.7081 17.8215 35.7081C13.067 35.7081 12.4719 35.6875 10.6054 35.6031C8.74372 35.5188 7.47077 35.2212 6.35694 34.7884C5.18887 34.3492 4.13057 33.6607 3.2557 32.7708C2.36524 31.8967 1.67615 30.8389 1.23648 29.6712C0.805264 28.5573 0.509302 27.2844 0.423378 25.4227C0.337454 23.553 0.318359 22.9579 0.318359 18.205C0.318359 13.4505 0.339045 12.8554 0.423378 10.9906C0.507711 9.12568 0.805264 7.85272 1.23648 6.73889C1.6768 5.57108 2.36641 4.51331 3.25729 3.63925C4.13092 2.74898 5.18816 2.0599 6.35534 1.62002C7.46918 1.18881 8.74213 0.892847 10.6038 0.806923H10.6054ZM24.8943 3.95748C23.0485 3.87315 22.4948 3.85565 17.8215 3.85565C13.1481 3.85565 12.5944 3.87315 10.7486 3.95748C9.04128 4.03545 8.1152 4.32028 7.49782 4.56055C6.68154 4.87879 6.09757 5.2559 5.48496 5.86851C4.90425 6.43346 4.45734 7.12122 4.177 7.88137C3.93673 8.49875 3.65191 9.42482 3.57394 11.1322C3.48961 12.978 3.4721 13.5317 3.4721 18.205C3.4721 22.8784 3.48961 23.4321 3.57394 25.2779C3.65191 26.9852 3.93673 27.9113 4.177 28.5287C4.45705 29.2877 4.90418 29.9767 5.48496 30.5415C6.04984 31.1223 6.73882 31.5695 7.49782 31.8495C8.1152 32.0898 9.04128 32.3746 10.7486 32.4526C12.5944 32.5369 13.1466 32.5544 17.8215 32.5544C22.4964 32.5544 23.0485 32.5369 24.8943 32.4526C26.6017 32.3746 27.5278 32.0898 28.1451 31.8495C28.9614 31.5313 29.5454 31.1542 30.158 30.5415C30.7388 29.9767 31.1859 29.2877 31.466 28.5287C31.7062 27.9113 31.9911 26.9852 32.069 25.2779C32.1534 23.4321 32.1709 22.8784 32.1709 18.205C32.1709 13.5317 32.1534 12.978 32.069 11.1322C31.9911 9.42482 31.7062 8.49875 31.466 7.88137C31.1477 7.06508 30.7706 6.48112 30.158 5.86851C29.593 5.28784 28.9053 4.84093 28.1451 4.56055C27.5278 4.32028 26.6017 4.03545 24.8943 3.95748ZM15.5859 23.6008C16.8344 24.1205 18.2247 24.1906 19.5192 23.7992C20.8137 23.4078 21.9322 22.5791 22.6835 21.4546C23.4349 20.3302 23.7726 18.9797 23.639 17.634C23.5053 16.2882 22.9085 15.0306 21.9506 14.0759C21.34 13.4656 20.6016 12.9983 19.7887 12.7077C18.9758 12.417 18.1086 12.3102 17.2494 12.395C16.3903 12.4797 15.5606 12.7539 14.8202 13.1977C14.0797 13.6416 13.4469 14.2441 12.9672 14.9619C12.4876 15.6797 12.173 16.495 12.0463 17.3489C11.9195 18.2028 11.9836 19.0743 12.2341 19.9005C12.4845 20.7267 12.915 21.487 13.4946 22.1269C14.0742 22.7667 14.7884 23.2701 15.5859 23.6008ZM11.4599 11.8434C12.2953 11.008 13.2871 10.3453 14.3786 9.89321C15.4701 9.44108 16.64 9.20838 17.8215 9.20838C19.0029 9.20838 20.1728 9.44108 21.2643 9.89321C22.3559 10.3453 23.3477 11.008 24.1831 11.8434C25.0185 12.6789 25.6812 13.6706 26.1333 14.7622C26.5854 15.8537 26.8181 17.0236 26.8181 18.205C26.8181 19.3865 26.5854 20.5564 26.1333 21.6479C25.6812 22.7394 25.0185 23.7312 24.1831 24.5666C22.4959 26.2538 20.2075 27.2017 17.8215 27.2017C15.4354 27.2017 13.1471 26.2538 11.4599 24.5666C9.77269 22.8794 8.82483 20.5911 8.82483 18.205C8.82483 15.819 9.77269 13.5306 11.4599 11.8434ZM28.8134 10.5482C29.0205 10.3529 29.1862 10.1181 29.3008 9.85759C29.4155 9.5971 29.4767 9.31625 29.4808 9.03169C29.485 8.74712 29.432 8.46461 29.325 8.20089C29.218 7.93717 29.0592 7.6976 28.8579 7.49636C28.6567 7.29512 28.4171 7.1363 28.1534 7.02931C27.8897 6.92232 27.6072 6.86933 27.3226 6.87348C27.038 6.87763 26.7572 6.93883 26.4967 7.05346C26.2362 7.1681 26.0014 7.33383 25.8061 7.54085C25.4263 7.94347 25.2183 8.47826 25.2264 9.03169C25.2345 9.58512 25.4579 10.1136 25.8493 10.505C26.2407 10.8964 26.7692 11.1198 27.3226 11.1279C27.876 11.1359 28.4108 10.928 28.8134 10.5482Z" fill="black"/>
</svg>
