<svg width="27" height="28" viewBox="0 0 27 28" fill="none" xmlns="http://www.w3.org/2000/svg">
<path d="M19.069 1H7.8629C4.24703 1 1.31641 4.13632 1.31641 8.00475V19.9953C1.31641 23.8642 4.24755 27 7.86342 27H19.0685C22.6843 27 25.6155 23.8637 25.6155 19.9947V8.00475C25.6155 4.13576 22.6843 1 19.0685 1H19.069Z" stroke="black" stroke-width="1.8" stroke-miterlimit="10"/>
<path d="M13.467 20.2761C16.7063 20.2761 19.3324 17.4663 19.3324 14.0001C19.3324 10.534 16.7063 7.72412 13.467 7.72412C10.2276 7.72412 7.60156 10.534 7.60156 14.0001C7.60156 17.4663 10.2276 20.2761 13.467 20.2761Z" stroke="black" stroke-width="1.8" stroke-miterlimit="10"/>
<path d="M20.5849 7.72412C21.2789 7.72412 21.8416 7.12207 21.8416 6.3794C21.8416 5.63672 21.2789 5.03467 20.5849 5.03467C19.8908 5.03467 19.3281 5.63672 19.3281 6.3794C19.3281 7.12207 19.8908 7.72412 20.5849 7.72412Z" fill="black"/>
</svg>
