<svg width="146" height="134" viewBox="0 0 146 134" fill="none" xmlns="http://www.w3.org/2000/svg">
<path d="M105.631 0.150391C93.0131 0.150391 80.9031 6.02408 72.999 15.306C65.0949 6.02408 52.985 0.150391 40.3674 0.150391C18.0329 0.150391 0.484375 17.6989 0.484375 40.0335C0.484375 67.444 25.1394 89.7785 62.4844 123.715L72.999 133.215L83.5136 123.643C120.859 89.7785 145.514 67.444 145.514 40.0335C145.514 17.6989 127.965 0.150391 105.631 0.150391ZM73.7242 112.911L72.999 113.636L72.2739 112.911C37.7569 81.6569 14.9873 60.9902 14.9873 40.0335C14.9873 25.5305 25.8645 14.6533 40.3674 14.6533C51.5347 14.6533 62.4119 21.8323 66.2552 31.7668H79.8154C83.5862 21.8323 94.4634 14.6533 105.631 14.6533C120.134 14.6533 131.011 25.5305 131.011 40.0335C131.011 60.9902 108.241 81.6569 73.7242 112.911Z" fill="#27B17F"/>
</svg>
