<svg width="10" height="14" viewBox="0 0 10 14" fill="none" xmlns="http://www.w3.org/2000/svg">
<path d="M5 0.623047C3.6744 0.624644 2.40354 1.16323 1.4662 2.12066C0.528855 3.07809 0.00156917 4.37618 5.31949e-06 5.73019C-0.00158236 6.83669 0.352269 7.91316 1.00728 8.79448C1.00728 8.79448 1.14364 8.97787 1.16591 9.00433L5 13.623L8.83591 9.00201C8.8559 8.9774 8.99272 8.79448 8.99272 8.79448L8.99318 8.79308C9.64786 7.91215 10.0015 6.83618 10 5.73019C9.99843 4.37618 9.47114 3.07809 8.5338 2.12066C7.59646 1.16323 6.3256 0.624644 5 0.623047ZM5 7.58733C4.6404 7.58733 4.28887 7.47841 3.98987 7.27435C3.69088 7.07028 3.45783 6.78024 3.32022 6.44089C3.18261 6.10154 3.1466 5.72813 3.21676 5.36788C3.28691 5.00763 3.46008 4.67672 3.71435 4.41699C3.96863 4.15727 4.2926 3.98039 4.64529 3.90873C4.99798 3.83707 5.36356 3.87385 5.69579 4.01441C6.02802 4.15498 6.31198 4.39301 6.51176 4.69842C6.71155 5.00382 6.81818 5.36288 6.81818 5.73019C6.81758 6.22255 6.62583 6.69456 6.28498 7.04271C5.94414 7.39086 5.48203 7.58672 5 7.58733Z" fill="black"/>
</svg>
