<svg width="26" height="26" viewBox="0 0 26 26" fill="none" xmlns="http://www.w3.org/2000/svg">
<path d="M13.0038 7.48104C11.7869 7.48104 10.6199 7.89227 9.75946 8.62425C8.899 9.35623 8.41559 10.349 8.41559 11.3842C8.41559 12.4194 8.899 13.4122 9.75946 14.1441C10.6199 14.8761 11.7869 15.2873 13.0038 15.2873C14.2207 15.2873 15.3877 14.8761 16.2482 14.1441C17.1087 13.4122 17.5921 12.4194 17.5921 11.3842C17.5921 10.349 17.1087 9.35623 16.2482 8.62425C15.3877 7.89227 14.2207 7.48104 13.0038 7.48104ZM10.3274 11.3842C10.3274 10.7803 10.6093 10.2012 11.1113 9.77423C11.6132 9.34724 12.294 9.10736 13.0038 9.10736C13.7137 9.10736 14.3944 9.34724 14.8964 9.77423C15.3983 10.2012 15.6803 10.7803 15.6803 11.3842C15.6803 11.988 15.3983 12.5672 14.8964 12.9942C14.3944 13.4212 13.7137 13.661 13.0038 13.661C12.294 13.661 11.6132 13.4212 11.1113 12.9942C10.6093 12.5672 10.3274 11.988 10.3274 11.3842ZM22.9412 18.2147L15.2268 25.1818C14.9408 25.4402 14.5958 25.646 14.2128 25.7867C13.8299 25.9274 13.4171 26 13 26C12.5829 26 12.1701 25.9274 11.7872 25.7867C11.4042 25.646 11.0592 25.4402 10.7732 25.1818L3.05884 18.2147H3.0879L3.0749 18.2017L3.05884 18.1854C1.07878 16.1933 -0.00524335 13.6677 1.907e-05 11.0589C1.907e-05 4.95115 5.82019 0 13 0C20.1798 0 26 4.95115 26 11.0589C26.0052 13.6677 24.9212 16.1933 22.9412 18.1854L22.9251 18.2017L22.9121 18.2147H22.9412ZM21.4553 17.1615C23.1592 15.4589 24.0928 13.2949 24.0882 11.0589C24.0882 5.84952 19.1238 1.62631 13 1.62631C6.87624 1.62631 1.91178 5.84952 1.91178 11.0589C1.907 13.295 2.84065 15.459 4.54466 17.1615L4.78019 17.3977L12.1649 24.0662C12.2722 24.1631 12.4016 24.2403 12.5452 24.293C12.6888 24.3458 12.8436 24.373 13 24.373C13.1564 24.373 13.3112 24.3458 13.4548 24.293C13.5984 24.2403 13.7278 24.1631 13.8351 24.0662L21.2198 17.3977L21.4553 17.1615Z" fill="#12BD80"/>
</svg>
