<svg width="26" height="26" viewBox="0 0 26 26" fill="none" xmlns="http://www.w3.org/2000/svg">
<path fill-rule="evenodd" clip-rule="evenodd" d="M17.9979 13.9749H1.05531C0.472778 13.9749 0 13.5381 0 12.9999C0 12.4617 0.472778 12.0249 1.05531 12.0249H17.9979C18.5805 12.0249 19.0533 12.4617 19.0533 12.9999C19.0533 13.5381 18.5805 13.9749 17.9979 13.9749Z" fill="#12BD80"/>
<path fill-rule="evenodd" clip-rule="evenodd" d="M13.8772 17.7648C13.6071 17.7648 13.3355 17.6699 13.1301 17.4775C12.7178 17.0953 12.7206 16.4791 13.1329 16.0995L16.5014 13.0003L13.1329 9.89984C12.7206 9.52024 12.7178 8.90404 13.1301 8.52184C13.5423 8.13964 14.2093 8.13964 14.6216 8.51924L18.7429 12.31C18.9427 12.492 19.0539 12.7416 19.0539 13.0003C19.0539 13.259 18.9427 13.5086 18.7429 13.6906L14.6216 17.4801C14.4161 17.6699 14.146 17.7648 13.8772 17.7648Z" fill="#12BD80"/>
<path fill-rule="evenodd" clip-rule="evenodd" d="M19.7567 26H12.8831C9.45125 26 6.6582 23.4195 6.6582 20.2475V19.0229C6.6582 18.4847 7.13098 18.0479 7.71351 18.0479C8.29604 18.0479 8.76882 18.4847 8.76882 19.0229V20.2475C8.76882 22.3431 10.6149 24.05 12.8831 24.05H19.7567C22.0348 24.05 23.8879 22.3392 23.8879 20.2332V5.7525C23.8879 3.6569 22.0404 1.95 19.7722 1.95H12.8986C10.6219 1.95 8.76882 3.6608 8.76882 5.7642V6.9771C8.76882 7.5153 8.29604 7.9521 7.71351 7.9521C7.13098 7.9521 6.6582 7.5153 6.6582 6.9771V5.7642C6.6582 2.5857 9.45829 0 12.8986 0H19.7722C23.204 0 25.9985 2.5805 25.9985 5.7525V20.2332C25.9985 23.413 23.197 26 19.7567 26Z" fill="#12BD80"/>
</svg>
