<svg width="70" height="70" viewBox="0 0 70 70" fill="none" xmlns="http://www.w3.org/2000/svg">
<path d="M19.4453 10.1113H54.4453V13.1252H19.4453V10.1113Z" fill="#12BD80"/>
<path d="M56.3887 15.5553H19.172C18.6758 15.5483 18.1861 15.4408 17.7326 15.2394C17.279 15.038 16.871 14.7468 16.533 14.3834C16.195 14.02 15.9342 13.5919 15.7661 13.125C15.5981 12.658 15.5264 12.1619 15.5553 11.6664C15.5529 10.6805 15.9251 9.73049 16.5965 9.00853C17.2679 8.28656 18.1885 7.84657 19.172 7.77756H56.3887C56.9044 7.77756 57.399 7.5727 57.7636 7.20805C58.1283 6.84339 58.3331 6.34881 58.3331 5.83312C58.3331 5.31742 58.1283 4.82284 57.7636 4.45819C57.399 4.09353 56.9044 3.88867 56.3887 3.88867H19.172C17.1568 3.95925 15.2477 4.80974 13.8474 6.26078C12.4472 7.71182 11.6652 9.64996 11.6665 11.6664C11.6476 11.9838 11.6476 12.3019 11.6665 12.6192C11.6477 12.7742 11.6477 12.9309 11.6665 13.0859V58.3331C11.6652 60.3496 12.4472 62.2877 13.8474 63.7388C15.2477 65.1898 17.1568 66.0403 19.172 66.1109H56.3887C56.9044 66.1109 57.399 65.906 57.7636 65.5414C58.1283 65.1767 58.3331 64.6821 58.3331 64.1664V17.6359C58.3343 17.1069 58.1338 16.5973 57.7726 16.2108C57.4114 15.8243 56.9165 15.5899 56.3887 15.5553ZM54.4442 62.222H19.172C18.1885 62.153 17.2679 61.713 16.5965 60.991C15.9251 60.2691 15.5529 59.319 15.5553 58.3331V18.5692C16.6609 19.1791 17.9099 19.4813 19.172 19.4442H54.4442V62.222Z" fill="#12BD80"/>
</svg>
