<svg width="28" height="28" viewBox="0 0 28 28" fill="none" xmlns="http://www.w3.org/2000/svg">
<path d="M10.0742 9.66675H15.474M10.0742 18.3334H14.1241M10.0742 14.0001H18.1739" stroke="black" stroke-width="2" stroke-linecap="round"/>
<path d="M2.44902 9.59507C3.32851 5.58323 6.25605 2.45076 10.0054 1.50971C12.7132 0.830096 15.5312 0.830097 18.2389 1.50971C21.9883 2.45076 24.9159 5.58324 25.7954 9.59507C26.4305 12.4924 26.4305 15.5076 25.7954 18.4049C24.9159 22.4168 21.9883 25.5492 18.2389 26.4903C15.5312 27.1699 12.7132 27.1699 10.0054 26.4903C6.25606 25.5492 3.32851 22.4168 2.44902 18.4049C1.81387 15.5076 1.81387 12.4924 2.44902 9.59507Z" stroke="black" stroke-width="2"/>
</svg>
