<svg width="23" height="23" viewBox="0 0 23 23" fill="none" xmlns="http://www.w3.org/2000/svg">
<path d="M8.42578 8.11597H12.9093M8.42578 14.7826H11.7884M8.42578 11.4493H15.151" stroke="black" stroke-width="2" stroke-linecap="round"/>
<path d="M2.09475 8.06081C2.825 4.97478 5.25577 2.56519 8.36892 1.8413C10.6172 1.31852 12.957 1.31852 15.2053 1.8413C18.3185 2.56519 20.7492 4.97479 21.4795 8.06081C22.0068 10.2895 22.0068 12.6089 21.4795 14.8376C20.7492 17.9237 18.3185 20.3333 15.2053 21.0571C12.957 21.5799 10.6172 21.5799 8.36892 21.0571C5.25577 20.3333 2.825 17.9237 2.09475 14.8376C1.56737 12.6089 1.56737 10.2895 2.09475 8.06081Z" stroke="black" stroke-width="2"/>
</svg>
