<svg width="28" height="29" viewBox="0 0 28 29" fill="none" xmlns="http://www.w3.org/2000/svg">
<path d="M3.64818 9.35911L4.59918 9.66831L3.64818 9.35911ZM10.8079 3.10414L10.5471 2.13874V2.13874L10.8079 3.10414ZM3.57048 9.59809L2.61948 9.28888L2.61948 9.28888L3.57048 9.59809ZM3.23524 15.4761L4.21478 15.2749L3.23524 15.4761ZM3.27425 15.666L2.29471 15.8672L2.29471 15.8672L3.27425 15.666ZM4.09849 22.1057L4.26586 21.1198L4.09849 22.1057ZM4.73565 22.2139L4.90303 21.228H4.90303L4.73565 22.2139ZM23.2643 22.2139L23.097 21.228L23.2643 22.2139ZM23.9015 22.1057L24.0689 23.0916L23.9015 22.1057ZM24.7332 15.6296L25.7128 15.8308L25.7128 15.8308L24.7332 15.6296ZM24.7746 15.4282L23.7951 15.2269V15.2269L24.7746 15.4282ZM24.4723 9.63883L23.5185 9.93913L23.5185 9.93914L24.4723 9.63883ZM24.3641 9.2952L25.318 8.9949V8.9949L24.3641 9.2952ZM17.4096 3.11302L17.6749 2.14887L17.4096 3.11302ZM25.0119 16.102L24.5892 17.0083L25.0119 16.102ZM3.02448 16.0853L2.61064 15.175L3.02448 16.0853ZM15 1.22314C15 0.67086 14.5523 0.223145 14 0.223145C13.4477 0.223145 13 0.67086 13 1.22314H15ZM13 2.67443C13 3.22672 13.4477 3.67443 14 3.67443C14.5523 3.67443 15 3.22672 15 2.67443H13ZM8.81578 22.7503L8.90905 21.7546L7.71529 21.6428L7.81956 22.8372L8.81578 22.7503ZM19.1842 22.7503L20.1804 22.8372L20.2847 21.6428L19.0909 21.7546L19.1842 22.7503ZM19.0269 23.5791L19.986 23.8621L19.0269 23.5791ZM18.8848 24.0606L17.9257 23.7776L18.8848 24.0606ZM15.2201 27.1032L15.4156 28.0839H15.4156L15.2201 27.1032ZM12.7799 27.1032L12.5844 28.0839L12.7799 27.1032ZM9.11516 24.0606L8.15604 24.3436L9.11516 24.0606ZM8.97308 23.5791L9.9322 23.2961L8.97308 23.5791ZM4.59918 9.66831C5.43622 7.09389 7.84831 4.93944 11.0686 4.06954L10.5471 2.13874C6.80507 3.14956 3.7818 5.71408 2.69719 9.0499L4.59918 9.66831ZM4.52147 9.9073L4.59918 9.66831L2.69719 9.0499L2.61948 9.28888L4.52147 9.9073ZM4.21478 15.2749C3.84801 13.4898 3.95182 11.6593 4.52147 9.9073L2.61948 9.28888C1.94361 11.3676 1.81856 13.5498 2.2557 15.6774L4.21478 15.2749ZM4.25379 15.4647L4.21478 15.2749L2.2557 15.6774L2.29471 15.8672L4.25379 15.4647ZM2 18.9326C2 18.1797 2.50542 17.4197 3.43832 16.9957L2.61064 15.175C1.13187 15.8472 0 17.2262 0 18.9326H2ZM4.26586 21.1198C2.81455 20.8734 2 19.8645 2 18.9326H0C0 21.0809 1.77695 22.7259 3.93112 23.0916L4.26586 21.1198ZM4.90303 21.228L4.26586 21.1198L3.93112 23.0916L4.56828 23.1998L4.90303 21.228ZM23.097 21.228C17.0937 22.2471 10.9063 22.2471 4.90303 21.228L4.56828 23.1998C10.7931 24.2566 17.2069 24.2566 23.4317 23.1998L23.097 21.228ZM23.7341 21.1198L23.097 21.228L23.4317 23.1998L24.0689 23.0916L23.7341 21.1198ZM26 18.9326C26 19.8645 25.1855 20.8734 23.7341 21.1198L24.0689 23.0916C26.2231 22.7259 28 21.0809 28 18.9326H26ZM24.5892 17.0083C25.505 17.4354 26 18.187 26 18.9326H28C28 17.2437 26.8906 15.8747 25.4345 15.1957L24.5892 17.0083ZM23.7951 15.2269L23.7537 15.4283L25.7128 15.8308L25.7541 15.6294L23.7951 15.2269ZM23.5185 9.93914C24.0626 11.6675 24.1562 13.4693 23.7951 15.2269L25.7541 15.6294C26.1843 13.5358 26.0717 11.3889 25.4261 9.33852L23.5185 9.93914ZM23.4103 9.59551L23.5185 9.93913L25.4262 9.33853L25.318 8.9949L23.4103 9.59551ZM17.1442 4.07717C20.2978 4.9451 22.6125 7.06158 23.4103 9.59551L25.318 8.9949C24.2808 5.70046 21.3602 3.16312 17.6749 2.14887L17.1442 4.07717ZM11.0686 4.06954C13.0378 3.53761 15.1826 3.5373 17.1442 4.07717L17.6749 2.14887C15.3652 1.51317 12.857 1.51478 10.5471 2.13874L11.0686 4.06954ZM25.4345 15.1957C25.5361 15.2431 25.7907 15.4515 25.7128 15.8308L23.7537 15.4283C23.5978 16.1872 24.0858 16.7736 24.5892 17.0083L25.4345 15.1957ZM2.29471 15.8672C2.21207 15.465 2.48209 15.2334 2.61064 15.175L3.43832 16.9957C3.92719 16.7734 4.40594 16.2053 4.25379 15.4647L2.29471 15.8672ZM13 1.22314V2.67443H15V1.22314H13ZM8.7225 23.7459C12.2299 24.0745 15.7701 24.0745 19.2775 23.7459L19.0909 21.7546C15.7076 22.0716 12.2924 22.0716 8.90905 21.7546L8.7225 23.7459ZM19.986 23.8621C20.0851 23.5266 20.1502 23.1836 20.1804 22.8372L18.188 22.6633C18.1695 22.8755 18.1295 23.0871 18.0678 23.2961L19.986 23.8621ZM19.844 24.3436L19.986 23.8621L18.0678 23.2961L17.9257 23.7776L19.844 24.3436ZM15.4156 28.0839C17.5102 27.6664 19.2736 26.2766 19.844 24.3436L17.9257 23.7776C17.6058 24.8618 16.5409 25.8202 15.0246 26.1225L15.4156 28.0839ZM12.5844 28.0839C13.5157 28.2696 14.4843 28.2696 15.4156 28.0839L15.0246 26.1225C14.3515 26.2567 13.6485 26.2567 12.9754 26.1225L12.5844 28.0839ZM8.15604 24.3436C8.72641 26.2766 10.4898 27.6664 12.5844 28.0839L12.9754 26.1225C11.4591 25.8202 10.3942 24.8618 10.0743 23.7776L8.15604 24.3436ZM8.01396 23.8621L8.15604 24.3436L10.0743 23.7776L9.9322 23.2961L8.01396 23.8621ZM7.81956 22.8372C7.8498 23.1836 7.91495 23.5266 8.01396 23.8621L9.9322 23.2961C9.87053 23.0871 9.83051 22.8755 9.81199 22.6633L7.81956 22.8372Z" fill="black"/>
</svg>
