<svg width="26" height="28" viewBox="0 0 26 28" fill="none" xmlns="http://www.w3.org/2000/svg">
<path d="M10.627 2.48345C10.8337 1.98802 11.1883 1.56374 11.6453 1.26499C12.1023 0.966244 12.6408 0.806641 13.192 0.806641C13.7431 0.806641 14.2817 0.966244 14.7387 1.26499C15.1957 1.56374 15.5503 1.98802 15.757 2.48345C17.8029 3.02905 19.6075 4.21081 20.8936 5.84724C22.1798 7.48368 22.8764 9.48428 22.8765 11.5418V17.8432L25.4111 21.5299C25.5501 21.7319 25.63 21.9668 25.6421 22.2094C25.6543 22.452 25.5983 22.6932 25.4801 22.9074C25.3619 23.1215 25.186 23.3006 24.9712 23.4254C24.7563 23.5502 24.5105 23.6161 24.26 23.616H17.9858C17.8193 24.7337 17.243 25.7558 16.3626 26.495C15.4822 27.2342 14.3566 27.6411 13.192 27.6411C12.0274 27.6411 10.9018 27.2342 10.0214 26.495C9.141 25.7558 8.56472 24.7337 8.39814 23.616H2.12395C1.87347 23.6161 1.62769 23.5502 1.41281 23.4254C1.19794 23.3006 1.02203 23.1215 0.903869 22.9074C0.785705 22.6932 0.729712 22.452 0.741864 22.2094C0.754016 21.9668 0.833857 21.7319 0.97287 21.5299L3.50745 17.8432V11.5418C3.50745 7.21655 6.52349 3.57282 10.627 2.48345ZM11.2357 23.616C11.3786 24.0086 11.6435 24.3486 11.994 24.5891C12.3445 24.8296 12.7633 24.9587 13.1927 24.9587C13.622 24.9587 14.0408 24.8296 14.3913 24.5891C14.7418 24.3486 15.0068 24.0086 15.1496 23.616H11.2343H11.2357ZM13.192 4.8339C11.3573 4.8339 9.59785 5.54063 8.30056 6.7986C7.00327 8.05658 6.27446 9.76276 6.27446 11.5418V18.2497C6.27452 18.5147 6.19365 18.7738 6.04203 18.9943L4.70972 20.9329H21.6729L20.3406 18.9943C20.1894 18.7737 20.109 18.5146 20.1095 18.2497V11.5418C20.1095 9.76276 19.3807 8.05658 18.0834 6.7986C16.7861 5.54063 15.0266 4.8339 13.192 4.8339Z" fill="black"/>
</svg>
