<svg width="16" height="16" viewBox="0 0 16 16" fill="none" xmlns="http://www.w3.org/2000/svg">
<path d="M2.42594 5.3809L3.13919 5.61281L3.13919 5.61281L2.42594 5.3809ZM6.28115 2.01284L6.08557 1.28879L6.28115 2.01284ZM2.3841 5.50959L1.67086 5.27768L1.67086 5.27768L2.3841 5.50959ZM2.20359 8.67467L2.93824 8.52373L2.20359 8.67467ZM2.2246 8.77691L1.48994 8.92785L1.48994 8.92785L2.2246 8.77691ZM2.66842 12.2445L2.79395 11.505L2.66842 12.2445ZM3.01151 12.3027L3.13704 11.5633H3.13704L3.01151 12.3027ZM12.9885 12.3027L12.863 11.5633L12.9885 12.3027ZM13.3316 12.2445L13.4571 12.9839L13.3316 12.2445ZM13.7794 8.75731L14.5141 8.90825V8.90825L13.7794 8.75731ZM13.8017 8.64887L13.0671 8.49793V8.49793L13.8017 8.64887ZM13.6389 5.53152L12.9236 5.75675L12.9236 5.75675L13.6389 5.53152ZM13.5807 5.34649L14.2961 5.12126L14.2961 5.12126L13.5807 5.34649ZM9.83593 2.01763L10.0349 1.29451L9.83593 2.01763ZM13.9295 9.01171L13.6125 9.69144L13.9295 9.01171ZM2.09011 9.0027L1.77973 8.31994L2.09011 9.0027ZM8.75 1C8.75 0.585786 8.41421 0.25 8 0.25C7.58579 0.25 7.25 0.585786 7.25 1H8.75ZM7.25 1.78146C7.25 2.19568 7.58579 2.53146 8 2.53146C8.41421 2.53146 8.75 2.19568 8.75 1.78146H7.25ZM5.20849 12.5915L5.27845 11.8448L4.38313 11.7609L4.46134 12.6568L5.20849 12.5915ZM10.7915 12.5915L11.5387 12.6568L11.6169 11.7609L10.7215 11.8448L10.7915 12.5915ZM10.7068 13.0378L11.4261 13.2501V13.2501L10.7068 13.0378ZM10.6303 13.2971L9.91096 13.0849L10.6303 13.2971ZM8.65696 14.9354L8.80358 15.6709H8.80358L8.65696 14.9354ZM7.34304 14.9354L7.19642 15.6709H7.19642L7.34304 14.9354ZM5.3697 13.2971L4.65036 13.5094L5.3697 13.2971ZM5.2932 13.0378L6.01253 12.8256L5.2932 13.0378ZM3.13919 5.61281C3.56372 4.30711 4.79789 3.19039 6.47674 2.73689L6.08557 1.28879C4.01547 1.84799 2.3229 3.27225 1.7127 5.149L3.13919 5.61281ZM3.09735 5.74149L3.13919 5.61281L1.7127 5.149L1.67086 5.27768L3.09735 5.74149ZM2.93824 8.52373C2.7482 7.59876 2.80185 6.65034 3.09735 5.74149L1.67086 5.27768C1.29569 6.43155 1.22611 7.64376 1.46894 8.82562L2.93824 8.52373ZM2.95925 8.62597L2.93824 8.52373L1.46894 8.82562L1.48994 8.92785L2.95925 8.62597ZM1.75 10.5358C1.75 10.2313 1.95589 9.88757 2.40048 9.68546L1.77973 8.31994C0.925727 8.70816 0.25 9.51618 0.25 10.5358H1.75ZM2.79395 11.505C2.08681 11.385 1.75 10.909 1.75 10.5358H0.25C0.25 11.8213 1.30861 12.7743 2.54289 12.9839L2.79395 11.505ZM3.13704 11.5633L2.79395 11.505L2.54289 12.9839L2.88598 13.0421L3.13704 11.5633ZM12.863 11.5633C9.65389 12.1081 6.34611 12.1081 3.13704 11.5633L2.88598 13.0421C6.26124 13.6151 9.73876 13.6151 13.114 13.0421L12.863 11.5633ZM13.2061 11.505L12.863 11.5633L13.114 13.0421L13.4571 12.9839L13.2061 11.505ZM14.25 10.5358C14.25 10.909 13.9132 11.385 13.2061 11.505L13.4571 12.9839C14.6914 12.7743 15.75 11.8213 15.75 10.5358H14.25ZM13.6125 9.69144C14.0484 9.89472 14.25 10.2342 14.25 10.5358H15.75C15.75 9.52668 15.0876 8.72425 14.2464 8.33198L13.6125 9.69144ZM13.0671 8.49793L13.0448 8.60637L14.5141 8.90825L14.5364 8.79981L13.0671 8.49793ZM12.9236 5.75675C13.2058 6.65337 13.2542 7.58703 13.0671 8.49793L14.5364 8.79981C14.7753 7.63695 14.7126 6.44439 14.3543 5.30629L12.9236 5.75675ZM12.8653 5.57172L12.9236 5.75675L14.3543 5.30629L14.2961 5.12126L12.8653 5.57172ZM9.63692 2.74074C11.2788 3.19261 12.4611 4.28774 12.8653 5.57172L14.2961 5.12126C13.7122 3.2669 12.0755 1.85612 10.0349 1.29451L9.63692 2.74074ZM6.47674 2.73689C7.50102 2.46021 8.6175 2.46018 9.63692 2.74074L10.0349 1.29451C8.75439 0.942079 7.36539 0.943078 6.08557 1.28879L6.47674 2.73689ZM14.2464 8.33198C14.3651 8.38732 14.5808 8.58363 14.5141 8.90825L13.0448 8.60637C12.9361 9.13538 13.2774 9.53519 13.6125 9.69144L14.2464 8.33198ZM1.48994 8.92785C1.42061 8.59041 1.6452 8.38109 1.77973 8.31994L2.40048 9.68546C2.72902 9.53611 3.06601 9.14558 2.95925 8.62597L1.48994 8.92785ZM7.25 1V1.78146H8.75V1H7.25ZM5.13854 13.3383C7.04027 13.5164 8.95973 13.5164 10.8615 13.3383L10.7215 11.8448C8.91289 12.0142 7.08711 12.0142 5.27845 11.8448L5.13854 13.3383ZM11.4261 13.2501C11.4834 13.056 11.5211 12.8575 11.5387 12.6568L10.0443 12.5263C10.0356 12.6264 10.0167 12.7264 9.98746 12.8256L11.4261 13.2501ZM11.3496 13.5094L11.4261 13.2501L9.98746 12.8256L9.91096 13.0849L11.3496 13.5094ZM8.80358 15.6709C9.9926 15.4339 11.016 14.64 11.3496 13.5094L9.91096 13.0849C9.76519 13.5789 9.26566 14.0493 8.51033 14.1999L8.80358 15.6709ZM7.19642 15.6709C7.72515 15.7764 8.27485 15.7764 8.80358 15.6709L8.51033 14.1999C8.17519 14.2667 7.82481 14.2667 7.48967 14.1999L7.19642 15.6709ZM4.65036 13.5094C4.98397 14.64 6.0074 15.4339 7.19642 15.6709L7.48967 14.1999C6.73434 14.0493 6.2348 13.5789 6.08904 13.0849L4.65036 13.5094ZM4.57386 13.2501L4.65036 13.5094L6.08904 13.0849L6.01253 12.8256L4.57386 13.2501ZM4.46134 12.6568C4.47886 12.8575 4.51659 13.056 4.57386 13.2501L6.01253 12.8256C5.98328 12.7264 5.96439 12.6264 5.95565 12.5263L4.46134 12.6568Z" fill="black"/>
</svg>
