<svg width="112" height="164" viewBox="0 0 112 164" fill="none" xmlns="http://www.w3.org/2000/svg">
<g opacity="0.3" filter="url(#filter0_i_423_184)">
<path opacity="0.3" d="M73.9306 6.28198L71.5293 7.52255L74.5705 22.1275L51.4023 43.3751L68.2884 77.7071L71.4095 78.8676L54.8038 44.0952L77.5981 22.7816L73.9306 6.28198Z" fill="#12BD80"/>
<path opacity="0.3" d="M23.4456 133.487L22.3789 130.872L34.597 122.497L32.7301 90.9118L68.2989 77.7083L71.4087 78.8675L35.5037 92.726L37.2893 123.51L23.4456 133.487Z" fill="#12BD80"/>
<path opacity="0.3" d="M139.481 135.407L140.335 132.58L128.384 123.989L131.266 92.5658L96.1569 77.8545L92.9844 78.8673L128.544 94.3266L125.664 125.377L139.481 135.407Z" fill="#12BD80"/>
<path opacity="0.3" d="M93.0601 6.28198L95.4184 7.6051L91.8569 22.0928L114.254 44.1517L96.1536 77.8608L92.9901 78.8676L110.829 44.752L88.8086 22.6378L93.0601 6.28198Z" fill="#12BD80"/>
<path opacity="0.3" d="M108.477 156.363L110.546 154.257L103.961 141.095L121.122 114.614L96.8775 85.2653L93.5977 84.6873L117.894 114.907L100.907 141.058L108.477 156.363Z" fill="#12BD80"/>
<path opacity="0.3" d="M127.408 20.4575L128.881 22.7244L118.992 33.8959L128.565 63.8379L96.8665 85.2678L93.5977 84.6872L125.254 62.7775L116.039 32.9607L127.408 20.4575Z" fill="#12BD80"/>
<path opacity="0.3" d="M53.4448 154.934L51.1636 153.173L58.2464 140.049L41.668 113.107L66.872 85.0072L70.1743 84.5706L45.083 113.427L61.5676 140.049L53.4448 154.934Z" fill="#12BD80"/>
<path opacity="0.3" d="M39.164 18.9392L37.5961 21.1425L46.9945 32.7304L36.1367 62.2317L66.8813 85.0074L70.1727 84.5712L39.4905 61.314L49.9855 31.9236L39.164 18.9392Z" fill="#12BD80"/>
<path opacity="0.3" d="M107.749 11.2041H110.735L106.093 27.5835L75.8424 35.8002L74.7757 74.346L36.142 69.8647L23.4775 98.3547L6.51172 100.355L6.91181 97.3943L21.6369 95.7135L34.5217 66.9835L72.2148 71.5452L73.4951 33.6118L103.986 25.609L107.749 11.2041Z" fill="#12BD80"/>
<path opacity="0.3" d="M138.438 31.1931L141.084 32.5789L129.371 44.9344L98.7617 38.1756L79.9297 71.8239L47.7872 49.9273L23.3474 69.2865L7.39062 63.187L9.11875 60.7484L22.9422 66.0929L47.6884 46.6237L78.9609 68.1549L97.6987 35.1483L128.421 42.2072L138.438 31.1931Z" fill="#12BD80"/>
<path opacity="0.3" d="M156.03 63.4375L157.683 65.8896L141.388 71.3354L117.759 51.1498L84.8638 72.0546L67.2388 37.8123L36.3503 43.5156L25.2852 30.7224L27.9887 29.3757L37.5459 40.5121L68.7568 34.8539L85.7928 68.3696L118.294 47.986L141.875 68.4906L156.03 63.4375Z" fill="#12BD80"/>
<path opacity="0.3" d="M156.678 100.156L156.998 102.796L140.552 100.035L128.848 70.9039L90.3135 74.6526L89.9898 35.8376L60.034 26.847L55.9375 10.2976L58.9388 10.3226L62.4375 24.695L92.6592 33.8733L92.7856 71.7668L130.738 68.3054L142.491 97.5005L156.678 100.156Z" fill="#12BD80"/>
<path opacity="0.3" d="M71.8594 159.662L74.4852 159.028L75.0118 144.119L102.574 129.001L94.3513 91.6354L91.5978 89.7661L99.4418 127.491L72.2257 142.762L71.8594 159.662Z" fill="#12BD80"/>
<path opacity="0.3" d="M151.439 48.4971V51.5078L137.594 56.5471L132.152 87.4705L94.3411 91.6319L91.5977 89.7663L129.911 85.1498L135.273 54.579L151.439 48.4971Z" fill="#12BD80"/>
<path opacity="0.3" d="M40.1929 146.826L37.293 146.116L45.7021 131.313L77.0395 130.54L87.2568 93.3551L123.711 106.911L142.798 82.2573L159.751 84.3547L158.657 87.1355L143.957 85.2611L124.599 110.095L89.0763 96.686L78.7975 133.223L47.2792 133.734L40.1929 146.826Z" fill="#12BD80"/>
<path opacity="0.3" d="M15.1471 120.103L12.9062 118.127L27.2262 108.917L55.3435 122.773L81.6465 94.5779L107.65 123.499L135.997 110.52L150.042 120.243L147.784 122.2L135.631 113.717L106.959 126.732L81.7152 98.3714L55.6549 125.967L27.4976 111.793L15.1471 120.103Z" fill="#12BD80"/>
<path opacity="0.3" d="M5.73645 84.5968L4.71484 81.822L21.8384 80.4153L39.9797 105.647L76.9078 93.1794L85.8684 130.634L117.226 132.451L124.926 147.513L121.98 148.177L115.35 135.083L83.6889 133.146L75.1273 96.5358L38.7066 108.591L20.6881 83.0612L5.73645 84.5968Z" fill="#12BD80"/>
<path opacity="0.3" d="M13.8477 48.7793L14.1666 46.1384L29.4807 52.7385L33.9097 83.8193L72.2282 89.3548L63.2978 127.131L90.2497 142.998L90.2861 160.047L87.3776 159.307L87.4012 144.516L60.2366 128.403L69.1397 91.5704L31.4565 85.8925L26.9949 54.7392L13.8477 48.7793Z" fill="#12BD80"/>
<path opacity="0.3" d="M81.153 157.763L65.2925 147.983L46.666 148.449L36.9963 132.248L20.2616 124.455L18.9474 105.813L8.12109 91.1301L15.5788 73.3454L12.6965 55.0601L27.7144 44.1449L33.4552 26.5974L51.8506 23.3949L65.5466 10.354L83.3629 15.9372L101.266 11.0095L114.226 24.2978L132.37 27.9978L137.711 45.9042L152.143 58.2044L148.697 76.3382L155.839 93.7418L144.269 108.021L142.709 126.745L126.012 133.727L115.867 149.843L96.9987 148.459L81.153 157.763ZM66.1629 144.759L81.1934 154.026L96.2387 145.193L114.184 146.51L123.843 131.164L139.68 124.542L141.161 106.774L152.158 93.2023L145.376 76.6741L148.652 59.4355L134.915 47.7277L129.852 30.7518L112.624 27.2395L100.294 14.5986L83.3055 19.2741L66.3897 13.9735L53.3561 26.3815L35.8988 29.4214L30.4355 46.1259L16.1629 56.4985L18.8826 73.7456L11.7751 90.6932L22.0763 104.66L23.323 122.35L39.2398 129.763L48.4569 145.204L66.1629 144.759Z" fill="#12BD80"/>
<path opacity="0.3" d="M83.3744 14.5853L80.4531 11.2042L83.3744 6.42236L86.1552 11.2042L83.3744 14.5853Z" fill="#12BD80"/>
<path opacity="0.3" d="M51.7593 21.8125L47.6016 20.1757L47.9641 14.585L52.6497 17.526L51.7593 21.8125Z" fill="#12BD80"/>
<path opacity="0.3" d="M26.4545 42.7324L22.0128 43.2163L19.7344 38.0967L25.2501 38.5232L26.4545 42.7324Z" fill="#12BD80"/>
<path opacity="0.3" d="M14.1236 73.2009L10.416 75.6931L6.01953 72.2195L11.1012 70.0337L14.1236 73.2009Z" fill="#12BD80"/>
<path opacity="0.3" d="M17.0285 106.016L14.9054 109.945L9.39844 108.913L12.8821 104.615L17.0285 106.016Z" fill="#12BD80"/>
<path opacity="0.3" d="M35.9171 133.487L35.8648 137.953L30.5078 139.6L31.5957 134.174L35.9171 133.487Z" fill="#12BD80"/>
<path opacity="0.3" d="M64.8344 149.838L66.8652 153.816L62.8876 157.764L61.3281 152.455L64.8344 149.838Z" fill="#12BD80"/>
<path opacity="0.3" d="M97.6381 150.029L101.287 152.607L99.5984 157.95L95.75 153.976L97.6381 150.029Z" fill="#12BD80"/>
<path opacity="0.3" d="M75.4102 5.41588L77.1434 7.36397L83.3018 4.10921L89.2015 7.60406L91.1223 5.85724L83.3018 0.988037L75.4102 5.41588Z" fill="#12BD80"/>
<path opacity="0.3" d="M40.1914 17.28L42.631 18.1989L46.5697 12.4557L53.4198 12.806L54.3074 10.3675L45.1191 9.69214L40.1914 17.28Z" fill="#12BD80"/>
<path opacity="0.3" d="M14.5742 44.1533L17.1613 43.8334L17.9792 36.9172L24.2063 34.0423L23.8599 31.4714L15.4094 35.1451L14.5742 44.1533Z" fill="#12BD80"/>
<path opacity="0.3" d="M3.9006 80.1147L6.04265 78.6292L3.55173 72.1242L7.73069 66.685L6.22767 64.5691L0.453125 71.7503L3.9006 80.1147Z" fill="#12BD80"/>
<path opacity="0.3" d="M11.6547 116.583L12.8603 114.271L7.63088 109.669L8.80376 102.912L6.48807 101.736L4.71484 110.78L11.6547 116.583Z" fill="#12BD80"/>
<path opacity="0.3" d="M35.4322 145.506L35.426 142.9L28.6561 141.257L26.5541 134.727L23.957 134.764L26.5905 143.595L35.4322 145.506Z" fill="#12BD80"/>
<path opacity="0.3" d="M69.9615 160.352L68.7433 158.047L61.9861 159.739L57.0907 154.935L54.8086 156.174L61.2434 162.769L69.9615 160.352Z" fill="#12BD80"/>
<path opacity="0.3" d="M107.022 156.93L104.871 155.457L99.6771 160.096L93.1071 158.118L91.6641 160.276L100.428 163.125L107.022 156.93Z" fill="#12BD80"/>
</g>
<defs>
<filter id="filter0_i_423_184" x="0.453125" y="0.988037" width="163.098" height="166.137" filterUnits="userSpaceOnUse" color-interpolation-filters="sRGB">
<feFlood flood-opacity="0" result="BackgroundImageFix"/>
<feBlend mode="normal" in="SourceGraphic" in2="BackgroundImageFix" result="shape"/>
<feColorMatrix in="SourceAlpha" type="matrix" values="0 0 0 0 0 0 0 0 0 0 0 0 0 0 0 0 0 0 127 0" result="hardAlpha"/>
<feOffset dy="4"/>
<feGaussianBlur stdDeviation="2"/>
<feComposite in2="hardAlpha" operator="arithmetic" k2="-1" k3="1"/>
<feColorMatrix type="matrix" values="0 0 0 0 0 0 0 0 0 0.129167 0 0 0 0 0.082582 0 0 0 0.15 0"/>
<feBlend mode="normal" in2="shape" result="effect1_innerShadow_423_184"/>
</filter>
</defs>
</svg>
