<svg width="25" height="26" viewBox="0 0 25 26" fill="none" xmlns="http://www.w3.org/2000/svg">
<path d="M16.5446 24.3511C17.671 24.5496 18.829 24.5496 19.9554 24.3511C21.7659 24.0321 23.2242 22.8166 23.7265 21.2079L23.8331 20.8667C23.9438 20.512 24 20.1452 24 19.7766C24 18.1511 22.5463 16.8333 20.7531 16.8333H15.7469C13.9537 16.8333 12.5 18.1511 12.5 19.7766C12.5 20.1452 12.5562 20.512 12.6669 20.8667L12.7735 21.2079C13.2758 22.8166 14.7341 24.0321 16.5446 24.3511ZM16.5446 24.3511C8.72027 22.9014 2.5986 16.7797 1.14886 8.95543M1.14886 8.95543C0.950378 7.82902 0.950379 6.67098 1.14887 5.54457C1.4679 3.73409 2.6834 2.27577 4.29208 1.77347L4.6333 1.66692C4.98798 1.55617 5.35483 1.5 5.72344 1.5C7.34895 1.5 8.66668 2.9537 8.66667 4.74691L8.66667 9.75309C8.66667 11.5463 7.34894 13 5.72344 13C5.35483 13 4.98798 12.9438 4.6333 12.8331L4.29208 12.7265C2.6834 12.2242 1.46789 10.7659 1.14886 8.95543Z" stroke="#CDCDCD" stroke-width="1.5"/>
</svg>
