<svg width="28" height="28" viewBox="0 0 28 28" fill="none" xmlns="http://www.w3.org/2000/svg">
<path d="M1.00195 24.4967C1.00195 21.0112 4.15413 18.0422 8.43803 17.4929L8.8239 17.4434C12.2542 17.0035 15.7497 17.0035 19.18 17.4434L19.5659 17.4929C23.8498 18.0422 27.002 21.0112 27.002 24.4967C27.002 26.0033 25.4819 27.2246 23.6069 27.2246H4.39705C2.52199 27.2246 1.00195 26.0033 1.00195 24.4967Z" stroke="#CDCDCD" stroke-width="1.5"/>
<path d="M21.5853 6.91211C21.5853 10.0532 18.1902 12.5996 14.002 12.5996C9.81383 12.5996 6.41866 10.0532 6.41866 6.91211C6.41866 3.77099 9.81383 1.22461 14.002 1.22461C18.1902 1.22461 21.5853 3.77099 21.5853 6.91211Z" stroke="#CDCDCD" stroke-width="1.5"/>
</svg>
