<svg width="25" height="25" viewBox="0 0 25 25" fill="none" xmlns="http://www.w3.org/2000/svg">
<path d="M10.8398 18.373C12.6148 18.3727 14.3386 17.7785 15.7368 16.685L20.1328 21.081L21.5468 19.667L17.1508 15.271C18.2448 13.8727 18.8394 12.1485 18.8398 10.373C18.8398 5.96205 15.2508 2.37305 10.8398 2.37305C6.42884 2.37305 2.83984 5.96205 2.83984 10.373C2.83984 14.784 6.42884 18.373 10.8398 18.373ZM10.8398 4.37305C14.1488 4.37305 16.8398 7.06405 16.8398 10.373C16.8398 13.682 14.1488 16.373 10.8398 16.373C7.53084 16.373 4.83984 13.682 4.83984 10.373C4.83984 7.06405 7.53084 4.37305 10.8398 4.37305Z" fill="black"/>
</svg>
