<svg width="15" height="14" viewBox="0 0 15 14" fill="none" xmlns="http://www.w3.org/2000/svg">
<path d="M1.65534 4.4885L1.00199 4.12022H1.00199L1.65534 4.4885ZM13.3447 4.4885L13.998 4.12022V4.12022L13.3447 4.4885ZM13.3447 9.5115L12.6913 9.14322V9.14322L13.3447 9.5115ZM1.65534 9.5115L2.3087 9.14322L1.65534 9.5115ZM2.3087 4.85678C4.64364 0.714407 10.3564 0.714407 12.6913 4.85678L13.998 4.12022C11.0893 -1.04007 3.9107 -1.04008 1.00199 4.12022L2.3087 4.85678ZM12.6913 4.85678C13.4362 6.17835 13.4362 7.82165 12.6913 9.14322L13.998 9.87978C15.0007 8.10099 15.0007 5.89901 13.998 4.12022L12.6913 4.85678ZM12.6913 9.14322C10.3564 13.2856 4.64364 13.2856 2.3087 9.14322L1.00199 9.87978C3.9107 15.0401 11.0893 15.0401 13.998 9.87978L12.6913 9.14322ZM2.3087 9.14322C1.56377 7.82165 1.56377 6.17835 2.3087 4.85678L1.00199 4.12022C-0.000662923 5.89901 -0.00066328 8.10099 1.00199 9.87978L2.3087 9.14322ZM9.31872 7.04553C9.31872 8.16587 8.46701 9.00495 7.49959 9.00495V10.505C9.36943 10.505 10.8187 8.91832 10.8187 7.04553H9.31872ZM7.49959 9.00495C6.53248 9.00495 5.68128 8.16619 5.68128 7.04553H4.18128C4.18128 8.91801 5.62946 10.505 7.49959 10.505V9.00495ZM5.68128 7.04553C5.68128 5.92385 6.53263 5.08524 7.49959 5.08524V3.58524C5.62931 3.58524 4.18128 5.17235 4.18128 7.04553H5.68128ZM7.49959 5.08524C8.46686 5.08524 9.31872 5.92416 9.31872 7.04553H10.8187C10.8187 5.17203 9.36958 3.58524 7.49959 3.58524V5.08524Z" fill="white"/>
</svg>
