<svg width="22" height="22" viewBox="0 0 22 22" fill="none" xmlns="http://www.w3.org/2000/svg">
<path d="M4.6 14.5999C6.58822 14.5999 8.2 12.9881 8.2 10.9999C8.2 9.01168 6.58822 7.3999 4.6 7.3999C2.61177 7.3999 1 9.01168 1 10.9999C1 12.9881 2.61177 14.5999 4.6 14.5999Z" stroke="white" stroke-width="1.5" stroke-linecap="round" stroke-linejoin="round"/>
<path d="M17.4008 20.9998C19.389 20.9998 21.0008 19.388 21.0008 17.3998C21.0008 15.4116 19.389 13.7998 17.4008 13.7998C15.4126 13.7998 13.8008 15.4116 13.8008 17.3998C13.8008 19.388 15.4126 20.9998 17.4008 20.9998Z" stroke="white" stroke-width="1.5" stroke-linecap="round" stroke-linejoin="round"/>
<path d="M17.4008 8.2C19.389 8.2 21.0008 6.58822 21.0008 4.6C21.0008 2.61177 19.389 1 17.4008 1C15.4126 1 13.8008 2.61177 13.8008 4.6C13.8008 6.58822 15.4126 8.2 17.4008 8.2Z" stroke="white" stroke-width="1.5" stroke-linecap="round" stroke-linejoin="round"/>
<path d="M7.80078 9.4002L14.2008 6.2002M7.80078 12.6002L14.2008 15.8002L7.80078 12.6002Z" stroke="white" stroke-width="1.5" stroke-linecap="round" stroke-linejoin="round"/>
</svg>
