<svg width="21" height="26" viewBox="0 0 21 26" fill="none" xmlns="http://www.w3.org/2000/svg">
<path d="M0 12.8691C0 13.2081 0.134641 13.5331 0.374304 13.7728C0.613967 14.0125 0.93902 14.1471 1.27795 14.1471H10.9776L8.03833 17.0736C7.91855 17.1924 7.82348 17.3338 7.7586 17.4895C7.69372 17.6452 7.66031 17.8123 7.66031 17.981C7.66031 18.1497 7.69372 18.3167 7.7586 18.4724C7.82348 18.6282 7.91855 18.7695 8.03833 18.8883C8.15713 19.0081 8.29848 19.1032 8.45421 19.168C8.60994 19.2329 8.77697 19.2663 8.94568 19.2663C9.11438 19.2663 9.28142 19.2329 9.43715 19.168C9.59288 19.1032 9.73422 19.0081 9.85303 18.8883L14.9648 13.7765C15.0812 13.655 15.1724 13.5116 15.2332 13.3548C15.361 13.0436 15.361 12.6947 15.2332 12.3835C15.1724 12.2266 15.0812 12.0833 14.9648 11.9618L9.85303 6.84998C9.73387 6.73082 9.59241 6.6363 9.43673 6.57182C9.28105 6.50733 9.11419 6.47414 8.94568 6.47414C8.77717 6.47414 8.61031 6.50733 8.45463 6.57182C8.29894 6.6363 8.15749 6.73082 8.03833 6.84998C7.91918 6.96913 7.82466 7.11059 7.76017 7.26627C7.69569 7.42195 7.6625 7.58881 7.6625 7.75732C7.6625 7.92583 7.69569 8.09269 7.76017 8.24838C7.82466 8.40406 7.91918 8.54552 8.03833 8.66467L10.9776 11.5912H1.27795C0.93902 11.5912 0.613967 11.7258 0.374304 11.9655C0.134641 12.2052 0 12.5302 0 12.8691ZM16.6134 0.0895996H3.83386C2.81706 0.0895996 1.8419 0.493523 1.12291 1.21251C0.403924 1.9315 0 2.90666 0 3.92346V7.75732C0 8.09626 0.134641 8.42131 0.374304 8.66097C0.613967 8.90064 0.93902 9.03528 1.27795 9.03528C1.61689 9.03528 1.94194 8.90064 2.1816 8.66097C2.42127 8.42131 2.55591 8.09626 2.55591 7.75732V3.92346C2.55591 3.58453 2.69055 3.25947 2.93021 3.01981C3.16988 2.78015 3.49493 2.64551 3.83386 2.64551H16.6134C16.9523 2.64551 17.2774 2.78015 17.5171 3.01981C17.7567 3.25947 17.8914 3.58453 17.8914 3.92346V21.8148C17.8914 22.1538 17.7567 22.4788 17.5171 22.7185C17.2774 22.9581 16.9523 23.0928 16.6134 23.0928H3.83386C3.49493 23.0928 3.16988 22.9581 2.93021 22.7185C2.69055 22.4788 2.55591 22.1538 2.55591 21.8148V17.981C2.55591 17.642 2.42127 17.317 2.1816 17.0773C1.94194 16.8376 1.61689 16.703 1.27795 16.703C0.93902 16.703 0.613967 16.8376 0.374304 17.0773C0.134641 17.317 0 17.642 0 17.981V21.8148C0 22.8316 0.403924 23.8068 1.12291 24.5258C1.8419 25.2448 2.81706 25.6487 3.83386 25.6487H16.6134C17.6302 25.6487 18.6054 25.2448 19.3244 24.5258C20.0433 23.8068 20.4473 22.8316 20.4473 21.8148V3.92346C20.4473 2.90666 20.0433 1.9315 19.3244 1.21251C18.6054 0.493523 17.6302 0.0895996 16.6134 0.0895996Z" fill="black"/>
</svg>
