<svg width="27" height="24" viewBox="0 0 27 24" fill="none" xmlns="http://www.w3.org/2000/svg">
<path d="M1.25391 20.8454C1.25391 18.0924 3.19371 15.7474 5.82995 15.3135L6.06741 15.2744C8.17838 14.927 10.3294 14.927 12.4404 15.2744L12.6779 15.3135C15.3141 15.7474 17.2539 18.0924 17.2539 20.8454C17.2539 22.0354 16.3185 23 15.1646 23H3.3432C2.18931 23 1.25391 22.0354 1.25391 20.8454Z" stroke="#12BD80" stroke-width="2"/>
<path d="M13.9206 5.8125C13.9206 8.47037 11.8312 10.625 9.25391 10.625C6.67658 10.625 4.58724 8.47037 4.58724 5.8125C4.58724 3.15463 6.67658 1 9.25391 1C11.8312 1 13.9206 3.15463 13.9206 5.8125Z" stroke="#12BD80" stroke-width="2"/>
<path d="M17.2539 10.625C19.8312 10.625 21.9206 8.47037 21.9206 5.8125C21.9206 3.15463 19.8312 1 17.2539 1M20.4404 23H23.1646C24.3185 23 25.2539 22.0354 25.2539 20.8454C25.2539 18.0924 23.3141 15.7474 20.6779 15.3135V15.3135C20.5198 15.2875 20.3596 15.2744 20.1995 15.2744C19.7732 15.2744 19.6408 15.2744 18.9088 15.2744" stroke="#12BD80" stroke-width="2" stroke-linecap="round"/>
</svg>
