<svg width="37" height="38" viewBox="0 0 37 38" fill="none" xmlns="http://www.w3.org/2000/svg">
<g clip-path="url(#clip0_174_310)">
<path d="M36.8797 33.404C36.8797 34.4582 36.461 35.4692 35.7156 36.2147C34.9703 36.9601 33.9593 37.379 32.9051 37.3792H3.97461C2.92042 37.379 1.90947 36.9601 1.1641 36.2147C0.418734 35.4692 -1.11485e-08 34.4582 0 33.404L0 4.47461C0.000459623 3.42062 0.41936 2.40993 1.16464 1.66464C1.90993 0.91936 2.92062 0.50046 3.97461 0.5L32.9051 0.5C33.9592 0.500306 34.97 0.919157 35.7153 1.66447C36.4606 2.40979 36.8794 3.42057 36.8797 4.47461V33.404Z" fill="#37B34A"/>
<path d="M31.1421 8.67471C30.5995 8.2113 29.8952 7.98229 29.1838 8.03801C28.4724 8.09373 27.8123 8.42962 27.3485 8.97186L15.7628 22.5214L9.53008 17.3183C9.28334 17.106 8.99687 16.9449 8.68732 16.8444C8.37777 16.7438 8.05132 16.7058 7.72694 16.7325C7.40256 16.7592 7.08673 16.8501 6.79781 17C6.50889 17.1498 6.25263 17.3556 6.04394 17.6054C5.83525 17.8551 5.67828 18.1439 5.58217 18.4549C5.48606 18.7658 5.45272 19.0928 5.48409 19.4167C5.51545 19.7407 5.6109 20.0552 5.76488 20.3419C5.91886 20.6287 6.12831 20.882 6.38104 21.0871L14.7315 28.0592C14.989 28.2739 15.2879 28.4333 15.6097 28.5274C15.9314 28.6215 16.2691 28.6483 16.6017 28.6061C16.9544 28.5789 17.2983 28.4823 17.6137 28.322C17.929 28.1617 18.2097 27.9408 18.4396 27.6719L31.4375 12.4672C31.9004 11.9244 32.1291 11.22 32.0733 10.5088C32.0174 9.79757 31.6817 9.13754 31.1398 8.67355" fill="#F4F4F4"/>
</g>
<defs>
<clipPath id="clip0_174_310">
<rect width="37" height="37" fill="white" transform="translate(0 0.5)"/>
</clipPath>
</defs>
</svg>
