<svg width="31" height="32" viewBox="0 0 31 32" fill="none" xmlns="http://www.w3.org/2000/svg">
<path d="M15.5078 3.00293C8.61531 3.00293 3.00781 8.79735 3.00781 15.9196V21.271C3.00781 22.5936 4.12906 23.6696 5.50781 23.6696H6.75781C7.08933 23.6696 7.40728 23.5335 7.6417 23.2913C7.87612 23.049 8.00781 22.7205 8.00781 22.3779V15.7349C8.00781 15.3923 7.87612 15.0638 7.6417 14.8215C7.40728 14.5793 7.08933 14.4432 6.75781 14.4432H5.62281C6.31781 9.44447 10.4803 5.58626 15.5078 5.58626C20.5353 5.58626 24.6978 9.44447 25.3928 14.4432H24.2578C23.9263 14.4432 23.6083 14.5793 23.3739 14.8215C23.1395 15.0638 23.0078 15.3923 23.0078 15.7349V23.6696C23.0078 25.0943 21.8866 26.2529 20.5078 26.2529H18.0078V24.9613H13.0078V28.8363H20.5078C23.2653 28.8363 25.5078 26.519 25.5078 23.6696C26.8866 23.6696 28.0078 22.5936 28.0078 21.271V15.9196C28.0078 8.79735 22.4003 3.00293 15.5078 3.00293Z" fill="white"/>
</svg>
