<svg width="28" height="28" viewBox="0 0 28 28" fill="none" xmlns="http://www.w3.org/2000/svg">
<path d="M1.50971 18.4049L0.536138 18.6333L1.50971 18.4049ZM1.50971 9.59507L0.536138 9.3667L1.50971 9.59507ZM26.4903 9.59507L25.5167 9.82344L26.4903 9.59507ZM26.4903 18.4049L25.5167 18.1766L26.4903 18.4049ZM18.4049 26.4903L18.1766 25.5167L18.4049 26.4903ZM9.59507 26.4903L9.82344 25.5167L9.59507 26.4903ZM9.59507 1.50971L9.82344 2.48329L9.59507 1.50971ZM18.4049 1.50971L18.1766 2.48328L18.4049 1.50971ZM7.94533 9.53635C7.55481 9.14583 6.92164 9.14583 6.53112 9.53635C6.14059 9.92688 6.14059 10.56 6.53112 10.9506L7.94533 9.53635ZM8.74084 11.7461L8.03374 12.4532C8.42426 12.8437 9.05742 12.8437 9.44795 12.4532L8.74084 11.7461ZM12.4532 9.44795C12.8437 9.05743 12.8437 8.42426 12.4532 8.03374C12.0627 7.64321 11.4295 7.64321 11.039 8.03374L12.4532 9.44795ZM15.5026 9.99477C14.9503 9.99477 14.5026 10.4425 14.5026 10.9948C14.5026 11.5471 14.9503 11.9948 15.5026 11.9948V9.99477ZM20.7618 11.9948C21.3141 11.9948 21.7618 11.5471 21.7618 10.9948C21.7618 10.4425 21.3141 9.99477 20.7618 9.99477V11.9948ZM7.94533 17.0494C7.55481 16.6589 6.92164 16.6589 6.53112 17.0494C6.14059 17.44 6.14059 18.0731 6.53112 18.4636L7.94533 17.0494ZM8.74084 19.2592L8.03374 19.9663C8.42426 20.3568 9.05742 20.3568 9.44795 19.9663L8.74084 19.2592ZM12.4532 16.961C12.8437 16.5705 12.8437 15.9373 12.4532 15.5468C12.0627 15.1563 11.4295 15.1563 11.039 15.5468L12.4532 16.961ZM15.5026 17.5078C14.9503 17.5078 14.5026 17.9556 14.5026 18.5078C14.5026 19.0601 14.9503 19.5078 15.5026 19.5078V17.5078ZM20.7618 19.5078C21.3141 19.5078 21.7618 19.0601 21.7618 18.5078C21.7618 17.9556 21.3141 17.5078 20.7618 17.5078V19.5078ZM2.48329 18.1766C1.8389 15.4295 1.8389 12.5705 2.48329 9.82344L0.536138 9.3667C-0.178712 12.4142 -0.178713 15.5858 0.536138 18.6333L2.48329 18.1766ZM25.5167 9.82344C26.1611 12.5705 26.1611 15.4295 25.5167 18.1766L27.4639 18.6333C28.1787 15.5858 28.1787 12.4142 27.4639 9.3667L25.5167 9.82344ZM18.1766 25.5167C15.4295 26.1611 12.5705 26.1611 9.82344 25.5167L9.3667 27.4639C12.4142 28.1787 15.5858 28.1787 18.6333 27.4639L18.1766 25.5167ZM9.82344 2.48329C12.5705 1.83891 15.4295 1.8389 18.1766 2.48328L18.6333 0.536136C15.5858 -0.178712 12.4142 -0.178712 9.3667 0.536136L9.82344 2.48329ZM9.82344 25.5167C6.18137 24.6624 3.3376 21.8186 2.48329 18.1766L0.536138 18.6333C1.56392 23.0149 4.98511 26.4361 9.3667 27.4639L9.82344 25.5167ZM18.6333 27.4639C23.0149 26.4361 26.4361 23.0149 27.4639 18.6333L25.5167 18.1766C24.6624 21.8186 21.8186 24.6624 18.1766 25.5167L18.6333 27.4639ZM18.1766 2.48328C21.8186 3.3376 24.6624 6.18137 25.5167 9.82344L27.4639 9.3667C26.4361 4.98511 23.0149 1.56392 18.6333 0.536136L18.1766 2.48328ZM9.3667 0.536136C4.98511 1.56392 1.56392 4.9851 0.536138 9.3667L2.48329 9.82344C3.3376 6.18136 6.18136 3.3376 9.82344 2.48329L9.3667 0.536136ZM6.53112 10.9506L8.03374 12.4532L9.44795 11.039L7.94533 9.53635L6.53112 10.9506ZM9.44795 12.4532L12.4532 9.44795L11.039 8.03374L8.03374 11.039L9.44795 12.4532ZM15.5026 11.9948H20.7618V9.99477H15.5026V11.9948ZM6.53112 18.4636L8.03374 19.9663L9.44795 18.5521L7.94533 17.0494L6.53112 18.4636ZM9.44795 19.9663L12.4532 16.961L11.039 15.5468L8.03374 18.5521L9.44795 19.9663ZM15.5026 19.5078H20.7618V17.5078H15.5026V19.5078Z" fill="#12BD80"/>
</svg>
