<svg width="25" height="26" viewBox="0 0 25 26" fill="none" xmlns="http://www.w3.org/2000/svg">
<path d="M23.8329 0.486324C23.5834 0.242918 23.2826 0.0835138 22.9624 0.025011C22.6421 -0.0334918 22.3144 0.0110871 22.014 0.154022L1.28254 10.0046C0.947533 10.1666 0.662318 10.4447 0.464759 10.8021C0.2672 11.1594 0.166642 11.5789 0.176434 12.0051C0.186226 12.4312 0.305906 12.8438 0.519584 13.188C0.733263 13.5322 1.03083 13.7918 1.37279 13.9323L5.84607 15.7599L8.27016 25.1924C8.27479 25.2115 8.28983 25.2237 8.29677 25.2414C8.32175 25.3167 8.35822 25.3859 8.40438 25.4457C8.47452 25.5379 8.56506 25.6053 8.66588 25.6405C8.67745 25.6459 8.68555 25.6582 8.69712 25.6609H8.70406L8.70754 25.6622C8.79705 25.6849 8.89007 25.6793 8.97714 25.6459C8.98639 25.6432 8.99565 25.6432 9.00606 25.6391C9.08966 25.6046 9.16531 25.5477 9.22707 25.4729C9.23401 25.4634 9.24558 25.4621 9.25252 25.4539L12.7388 20.9242L17.8265 25.5615C18.1354 25.8461 18.5161 26 18.9084 26C19.7577 26 20.4901 25.3 20.6648 24.3235L24.4392 2.50873C24.5032 2.1384 24.4807 1.75456 24.3739 1.39814C24.2671 1.04173 24.0801 0.726116 23.8329 0.484962V0.486324ZM9.53485 17.5508L8.71679 22.2316L7.0101 15.5883L15.4741 10.3995L9.69221 17.2063C9.61214 17.3004 9.55741 17.4203 9.53485 17.5508ZM19.5309 24.0498C19.5092 24.1733 19.4608 24.2881 19.3905 24.3833C19.3202 24.4784 19.2303 24.5507 19.1294 24.5932C19.0309 24.6378 18.9243 24.6514 18.82 24.6328C18.7158 24.6142 18.6174 24.5639 18.5346 24.4869L13.0235 19.4629C12.9082 19.3582 12.7637 19.3085 12.6188 19.3237C12.4738 19.3388 12.339 19.4177 12.2413 19.5446L9.81486 22.692L10.6318 18.0248L18.95 8.23276C19.0474 8.11773 19.1067 7.9655 19.1171 7.80355C19.1276 7.6416 19.0885 7.48059 19.0069 7.34958C18.9254 7.21857 18.8067 7.12618 18.6724 7.0891C18.538 7.05201 18.3968 7.07267 18.2743 7.14733L6.28345 14.4988L1.75116 12.6439C1.63099 12.5972 1.52618 12.5076 1.45131 12.3875C1.37645 12.2674 1.33525 12.1228 1.33345 11.9739C1.32769 11.8236 1.3618 11.675 1.43105 11.5486C1.5003 11.4222 1.60126 11.3242 1.71992 11.2684L22.4479 1.41786C22.5541 1.36474 22.6708 1.34756 22.7849 1.36825C22.8989 1.38894 23.0058 1.44668 23.0935 1.53498C23.1807 1.61804 23.2466 1.72799 23.2838 1.85257C23.321 1.97714 23.328 2.11143 23.3041 2.24044L19.5309 24.0511V24.0498Z" fill="black"/>
</svg>
