<svg width="25" height="25" viewBox="0 0 25 25" fill="none" xmlns="http://www.w3.org/2000/svg">
<path d="M12.6562 2.87646C7.14225 2.87646 2.65625 7.36246 2.65625 12.8765C2.65625 18.3905 7.14225 22.8765 12.6562 22.8765C18.1702 22.8765 22.6562 18.3905 22.6562 12.8765C22.6562 7.36246 18.1702 2.87646 12.6562 2.87646ZM12.6562 20.8765C8.24525 20.8765 4.65625 17.2875 4.65625 12.8765C4.65625 8.46547 8.24525 4.87646 12.6562 4.87646C17.0672 4.87646 20.6562 8.46547 20.6562 12.8765C20.6562 17.2875 17.0672 20.8765 12.6562 20.8765Z" fill="#878787"/>
<path d="M13.6562 7.87646H11.6562V13.2905L14.9493 16.5835L16.3632 15.1695L13.6562 12.4625V7.87646Z" fill="#878787"/>
</svg>
