<svg width="28" height="28" viewBox="0 0 28 28" fill="none" xmlns="http://www.w3.org/2000/svg">
<path d="M1.52738 18.5518L2.50081 18.3228L1.52738 18.5518ZM1.52738 9.44819L2.50081 9.67718L1.52738 9.44819ZM26.4726 9.4482L27.4461 9.21921L26.4726 9.4482ZM26.4726 18.5518L25.4992 18.3228L26.4726 18.5518ZM18.2634 26.5074L18.0357 25.5337H18.0357L18.2634 26.5074ZM9.73659 26.5074L9.96434 25.5337L9.73659 26.5074ZM9.73659 1.49263L9.96434 2.46635H9.96434L9.73659 1.49263ZM18.2634 1.49263L18.4912 0.518906V0.518906L18.2634 1.49263ZM9.1155 26.3621L8.88775 27.3358L9.1155 26.3621ZM18.8845 26.3621L19.1122 27.3358H19.1122L18.8845 26.3621ZM18.8845 1.63789L18.6567 2.61161L18.8845 1.63789ZM9.1155 1.63789L8.88775 0.664175V0.664175L9.1155 1.63789ZM9.33523 10.8184C8.89428 10.4859 8.26724 10.5738 7.93471 11.0147C7.60217 11.4557 7.69006 12.0827 8.13101 12.4153L9.33523 10.8184ZM12.2507 14.2696L12.8528 13.4711L12.2507 14.2696ZM15.7493 14.2696L16.3514 15.068H16.3514L15.7493 14.2696ZM19.869 12.4153C20.3099 12.0827 20.3978 11.4557 20.0653 11.0147C19.7328 10.5738 19.1057 10.4859 18.6648 10.8184L19.869 12.4153ZM9.34325 2.61161L9.96434 2.46635L9.50884 0.518905L8.88775 0.664175L9.34325 2.61161ZM18.0357 2.46635L18.6567 2.61161L19.1122 0.664173L18.4912 0.518906L18.0357 2.46635ZM18.6567 25.3884L18.0357 25.5337L18.4912 27.4811L19.1122 27.3358L18.6567 25.3884ZM9.96434 25.5337L9.34325 25.3884L8.88775 27.3358L9.50884 27.4811L9.96434 25.5337ZM2.50081 18.3228C1.83306 15.4843 1.83306 12.5157 2.50081 9.67718L0.553952 9.2192C-0.18465 12.3589 -0.184651 15.6411 0.553951 18.7808L2.50081 18.3228ZM25.4992 9.67719C26.1669 12.5157 26.1669 15.4843 25.4992 18.3228L27.4461 18.7808C28.1847 15.6411 28.1846 12.3589 27.4461 9.21921L25.4992 9.67719ZM18.0357 25.5337C15.3772 26.1554 12.6228 26.1554 9.96434 25.5337L9.50884 27.4811C12.4669 28.173 15.5331 28.173 18.4912 27.4811L18.0357 25.5337ZM9.96434 2.46635C12.6228 1.84455 15.3772 1.84455 18.0357 2.46635L18.4912 0.518906C15.5331 -0.172968 12.4669 -0.172969 9.50884 0.518905L9.96434 2.46635ZM9.34325 25.3884C6.00747 24.6082 3.33979 21.8893 2.50081 18.3228L0.553951 18.7808C1.55592 23.0401 4.76688 26.372 8.88775 27.3358L9.34325 25.3884ZM19.1122 27.3358C23.2331 26.372 26.4441 23.0401 27.4461 18.7808L25.4992 18.3228C24.6602 21.8893 21.9925 24.6082 18.6567 25.3884L19.1122 27.3358ZM18.6567 2.61161C21.9925 3.39184 24.6602 6.11073 25.4992 9.67719L27.4461 9.21921C26.4441 4.95991 23.2331 1.62803 19.1122 0.664173L18.6567 2.61161ZM8.88775 0.664175C4.76688 1.62803 1.55592 4.95991 0.553952 9.2192L2.50081 9.67718C3.33979 6.11073 6.00748 3.39184 9.34325 2.61161L8.88775 0.664175ZM8.13101 12.4153L11.6486 15.068L12.8528 13.4711L9.33523 10.8184L8.13101 12.4153ZM16.3514 15.068L19.869 12.4153L18.6648 10.8184L15.1472 13.4711L16.3514 15.068ZM11.6486 15.068C13.0514 16.1259 14.9486 16.1259 16.3514 15.068L15.1472 13.4711C14.4572 13.9915 13.5428 13.9915 12.8528 13.4711L11.6486 15.068Z" fill="#12BD80"/>
</svg>
