<svg width="59" height="59" viewBox="0 0 59 59" fill="none" xmlns="http://www.w3.org/2000/svg">
<path d="M3.07824 38.8181L1.61788 39.1607L3.07824 38.8181ZM3.07824 20.1819L1.61788 19.8393L3.07824 20.1819ZM55.9218 20.1819L54.4614 20.5244L55.9218 20.1819ZM55.9218 38.8181L54.4614 38.4756L55.9218 38.8181ZM38.8181 55.9218L38.4756 54.4614L38.8181 55.9218ZM20.1819 55.9218L20.5244 54.4614L20.1819 55.9218ZM20.1819 3.07823L20.5244 4.5386L20.1819 3.07823ZM38.8181 3.07823L38.4756 4.5386L38.8181 3.07823ZM6.18906 44.3324C5.60327 44.9182 5.60327 45.8679 6.18906 46.4537C6.77485 47.0395 7.72459 47.0395 8.31038 46.4537L6.18906 44.3324ZM12.563 40.0798L11.5023 39.0191L12.563 40.0798ZM30.5439 40.0798L29.4833 41.1404L30.5439 40.0798ZM35.8572 45.3931L34.7966 46.4537L35.8572 45.3931ZM38.0094 43.2409L39.0701 44.3015L38.0094 43.2409ZM42.7431 54.4002C43.3289 54.986 44.2786 54.986 44.8644 54.4002C45.4502 53.8144 45.4502 52.8647 44.8644 52.2789L42.7431 54.4002ZM52.0779 43.879L50.9256 44.8393V44.8393L52.0779 43.879ZM52.1873 46.3533C52.7176 46.9897 53.6634 47.0757 54.2999 46.5454C54.9363 46.015 55.0223 45.0692 54.4919 44.4328L52.1873 46.3533ZM4.5386 38.4756C3.1538 32.572 3.1538 26.428 4.5386 20.5244L1.61788 19.8393C0.127375 26.1935 0.127375 32.8065 1.61788 39.1607L4.5386 38.4756ZM54.4614 20.5244C55.8462 26.428 55.8462 32.572 54.4614 38.4756L57.3821 39.1607C58.8726 32.8065 58.8726 26.1935 57.3821 19.8393L54.4614 20.5244ZM38.4756 54.4614C32.572 55.8462 26.428 55.8462 20.5244 54.4614L19.8393 57.3821C26.1935 58.8726 32.8065 58.8726 39.1607 57.3821L38.4756 54.4614ZM20.5244 4.5386C26.428 3.1538 32.572 3.1538 38.4756 4.5386L39.1607 1.61787C32.8065 0.127375 26.1935 0.127377 19.8393 1.61787L20.5244 4.5386ZM20.5244 54.4614C12.5925 52.6008 6.39918 46.4075 4.5386 38.4756L1.61788 39.1607C3.73866 48.2019 10.7981 55.2613 19.8393 57.3821L20.5244 54.4614ZM39.1607 57.3821C48.2019 55.2613 55.2614 48.2019 57.3821 39.1607L54.4614 38.4756C52.6008 46.4075 46.4075 52.6008 38.4756 54.4614L39.1607 57.3821ZM38.4756 4.5386C46.4075 6.39918 52.6008 12.5925 54.4614 20.5244L57.3821 19.8393C55.2614 10.7981 48.2019 3.73865 39.1607 1.61787L38.4756 4.5386ZM19.8393 1.61787C10.7981 3.73865 3.73866 10.7981 1.61788 19.8393L4.5386 20.5244C6.39918 12.5925 12.5925 6.39917 20.5244 4.5386L19.8393 1.61787ZM8.31038 46.4537L13.6237 41.1404L11.5023 39.0191L6.18906 44.3324L8.31038 46.4537ZM29.4833 41.1404L34.7966 46.4537L36.9179 44.3324L31.6046 39.0191L29.4833 41.1404ZM36.9179 46.4537L39.0701 44.3015L36.9487 42.1802L34.7966 44.3324L36.9179 46.4537ZM34.7966 46.4537L42.7431 54.4002L44.8644 52.2789L36.9179 44.3324L34.7966 46.4537ZM50.9256 44.8393L52.1873 46.3533L54.4919 44.4328L53.2302 42.9187L50.9256 44.8393ZM39.0701 44.3015C42.4114 40.9602 47.9005 41.2092 50.9256 44.8393L53.2302 42.9187C49.0758 37.9334 41.5375 37.5915 36.9487 42.1802L39.0701 44.3015ZM13.6237 41.1404C18.0032 36.7609 25.1038 36.7609 29.4833 41.1404L31.6046 39.0191C26.0535 33.468 17.0534 33.468 11.5023 39.0191L13.6237 41.1404Z" fill="black"/>
</svg>
