<svg width="26" height="26" viewBox="0 0 26 26" fill="none" xmlns="http://www.w3.org/2000/svg">
<path d="M8.68459 3.99423L5.28749 2.86063C4.91418 2.73629 4.51666 2.70244 4.1277 2.76187C3.73874 2.82131 3.36947 2.97232 3.05032 3.20246C2.73117 3.43261 2.47128 3.7353 2.29206 4.0856C2.11285 4.43589 2.01944 4.82376 2.01953 5.21723V19.8473C2.01941 20.3687 2.1834 20.8769 2.48826 21.2999C2.79313 21.7229 3.2234 22.0392 3.71808 22.2039L8.68459 23.859C9.19397 24.0287 9.74462 24.0287 10.254 23.859L16.1344 21.8997C16.6437 21.7301 17.1944 21.7301 17.7038 21.8997L21.1009 23.0321C21.4743 23.1565 21.8719 23.1903 22.261 23.1308C22.65 23.0713 23.0194 22.9202 23.3385 22.6899C23.6577 22.4596 23.9176 22.1568 24.0967 21.8063C24.2759 21.4559 24.3691 21.0678 24.3688 20.6743V6.0454C24.369 5.52416 24.2052 5.01606 23.9006 4.5931C23.596 4.17014 23.166 3.85376 22.6715 3.68879L17.705 2.0337C17.1952 1.86377 16.6441 1.86377 16.1344 2.0337L10.2528 3.99299C9.74338 4.16265 9.19273 4.16265 8.68335 3.99299L8.68459 3.99423Z" stroke="black" stroke-width="3" stroke-linecap="round" stroke-linejoin="round"/>
<path d="M9.46875 4.25488V24.1209" stroke="black" stroke-width="3" stroke-linejoin="round"/>
<path d="M16.9199 1.77173V21.6378" stroke="black" stroke-width="3" stroke-linejoin="round"/>
</svg>
